<svg version="1.1" id="Layer_1" xmlns="http://www.w3.org/2000/svg" xmlns:xlink="http://www.w3.org/1999/xlink" x="0px" y="0px"
	 width="100%" viewBox="0 0 995 296" enable-background="new 0 0 995 296" xml:space="preserve">
<path fill="#1A1A1A" opacity="1.000000" stroke="none" 
	d="
M651.000000,297.000000 
	C434.000000,297.000000 217.500000,297.000000 1.000000,297.000000 
	C1.000000,198.333328 1.000000,99.666664 1.000000,1.000000 
	C332.666656,1.000000 664.333313,1.000000 996.000000,1.000000 
	C996.000000,99.666664 996.000000,198.333328 996.000000,297.000000 
	C881.166687,297.000000 766.333313,297.000000 651.000000,297.000000 
M134.883133,275.207550 
	C141.097061,273.436249 147.454071,272.054443 153.502518,269.832642 
	C206.097717,250.512802 240.784317,199.117081 224.767853,143.205154 
	C224.767853,143.205154 225.119461,142.877197 225.744675,143.176788 
	C245.725784,180.709610 240.627960,216.095825 216.881958,250.210373 
	C236.469788,241.850540 252.828690,229.371109 265.075592,211.714981 
	C277.322235,194.059204 282.994293,174.390915 282.065002,152.750305 
	C282.691437,152.680069 283.317902,152.609833 283.944336,152.539597 
	C287.815674,163.285995 291.687042,174.032394 295.549377,184.753845 
	C300.713226,171.862823 301.370270,158.066086 299.530365,144.420502 
	C294.179260,104.734245 270.903564,79.026779 234.694366,64.059418 
	C231.709152,62.825459 230.218933,61.332916 229.015381,58.199936 
	C226.601700,51.916828 223.856537,45.536442 219.995819,40.082783 
	C212.971863,30.160698 203.277206,23.276100 191.605606,18.429028 
	C187.964554,31.454544 184.561554,43.906906 180.926163,56.291046 
	C180.457260,57.888348 179.035858,59.927391 177.617493,60.375832 
	C174.579483,61.336338 171.254883,61.390354 167.577637,61.877926 
	C170.130997,53.524952 172.498016,45.781544 175.228867,36.847958 
	C165.170273,31.745234 155.104919,26.639067 144.509796,21.264156 
	C144.509796,37.743198 144.509796,52.678978 144.509796,67.970612 
	C138.351669,70.909050 131.823761,74.168449 125.176331,77.162468 
	C114.825256,81.824631 108.787323,89.323891 108.682869,101.034088 
	C108.666634,102.854286 108.658325,104.844406 107.956772,106.455711 
	C106.104050,110.710960 104.963234,116.776199 101.610008,118.628136 
	C83.476402,128.643066 64.752678,137.588669 46.249702,146.937164 
	C44.705147,147.717545 43.288982,148.752045 41.426605,149.908524 
	C50.434822,157.641953 58.929955,165.095093 67.679146,172.236969 
	C68.736191,173.099838 71.365395,172.783478 72.929405,172.164001 
	C90.202194,165.322479 107.640450,158.825363 124.551010,151.168518 
	C135.832458,146.060440 146.988846,146.578842 158.947266,148.122559 
	C156.383194,153.654495 153.974777,158.850586 151.554581,164.072128 
	C145.026901,161.794983 138.938614,159.671127 132.594162,157.457916 
	C130.629791,162.592117 128.776703,167.435486 126.908142,172.319244 
	C120.395805,170.040115 114.495071,167.975021 108.309021,165.810074 
	C106.549103,171.832047 104.894455,177.493835 103.125877,183.545441 
	C97.621590,181.359329 92.581078,179.357422 87.548958,177.358841 
	C81.722618,191.121399 96.887070,208.226624 117.067520,212.602341 
	C115.600471,207.547729 114.186630,202.676437 112.649452,197.380188 
	C117.852501,195.571152 122.722717,193.376907 127.827408,192.197662 
	C142.686646,188.764954 154.770798,197.905197 156.092209,213.121399 
	C156.973633,223.271088 155.861603,233.207611 151.290909,242.298828 
	C145.785278,253.249680 139.528336,263.822815 133.322876,274.884857 
	C133.415359,275.131439 133.507843,275.378021 133.600311,275.624603 
	C133.757111,275.441589 133.913910,275.258606 134.883133,275.207550 
M577.618469,161.533112 
	C577.618469,169.610870 577.618469,177.688644 577.618469,185.806335 
	C571.863770,185.806335 566.957336,185.806335 561.982422,185.806335 
	C561.982422,161.459183 561.982422,137.397278 561.982422,113.233025 
	C567.172180,113.233025 572.069275,113.233025 577.387085,113.233025 
	C577.387085,115.488594 577.386597,117.456055 577.387146,119.423508 
	C577.390686,131.992416 577.390808,131.992355 590.171265,131.970566 
	C590.837585,131.969437 591.506592,131.931412 592.169861,131.976440 
	C595.982239,132.235245 597.718018,130.347427 597.710388,126.648933 
	C597.696716,119.985756 597.865967,113.315231 597.607910,106.661377 
	C597.315552,99.124542 593.828430,95.218010 586.230530,94.828522 
	C576.262573,94.317535 566.253235,94.362854 556.267212,94.520264 
	C545.099854,94.696304 541.388489,98.674286 541.408875,109.790077 
	C541.457458,136.277084 541.522949,162.764069 541.601196,189.251007 
	C541.606567,191.079437 541.662292,192.921173 541.886597,194.732925 
	C542.515564,199.811905 545.643555,203.560287 550.410583,203.793747 
	C563.019226,204.411209 575.683899,204.491089 588.301086,204.055862 
	C594.046997,203.857651 597.770447,199.431656 597.867188,193.719360 
	C598.129272,178.231979 598.026489,162.738373 598.058594,147.247208 
	C598.065247,144.018448 596.402222,142.203461 593.201721,142.154327 
	C586.707153,142.054611 580.207947,142.025711 573.716492,142.192932 
	C572.648499,142.220459 570.749634,143.333542 570.698425,144.049576 
	C570.379211,148.513840 570.059204,153.072372 570.735291,157.445740 
	C570.899780,158.509720 574.799744,158.979187 576.963013,159.773834 
	C577.219421,159.868042 577.354980,160.291199 577.618469,161.533112 
M466.864777,192.148315 
	C466.884033,179.983673 466.907257,167.819031 466.921387,155.654388 
	C466.933655,145.097763 462.959564,141.306305 452.377594,141.514923 
	C445.971283,141.641235 439.560455,141.538193 433.180664,141.538193 
	C433.180664,131.554001 433.180664,122.463974 433.180664,113.185150 
	C437.516235,113.185150 441.593628,113.185150 446.175293,113.185150 
	C446.175293,118.173546 446.289734,122.964043 446.136566,127.745979 
	C446.027618,131.148560 447.551178,132.723206 450.826843,132.733948 
	C454.491180,132.745972 458.156403,132.708115 461.820129,132.636246 
	C465.247009,132.569031 466.910339,130.981934 466.830475,127.343262 
	C466.684265,120.681252 466.878326,114.012550 466.815308,107.347740 
	C466.738892,99.261086 462.828217,94.831535 454.721710,94.558556 
	C444.902313,94.227905 435.052612,94.230408 425.234619,94.592590 
	C416.350433,94.920319 412.426697,99.425819 412.428436,108.362167 
	C412.430847,120.859467 412.464447,133.357071 412.561615,145.853943 
	C412.631287,154.816177 416.752594,158.885300 425.797333,158.975937 
	C432.418732,159.042297 439.041382,158.988937 445.787445,158.988937 
	C445.787445,168.276031 445.787445,177.121460 445.787445,185.722290 
	C441.280884,185.722290 437.203888,185.722290 432.945465,185.722290 
	C432.945465,181.533081 432.806061,177.705856 432.985931,173.893692 
	C433.154480,170.321793 431.896912,168.633133 428.118164,168.823654 
	C424.128937,169.024765 420.114899,169.011322 416.124542,168.821884 
	C413.124054,168.679428 411.972290,169.686600 412.054352,172.796631 
	C412.225647,179.290527 411.992554,185.793991 412.075012,192.291626 
	C412.157745,198.806549 416.517029,204.115738 423.014099,204.345398 
	C433.987030,204.733246 445.007416,204.761734 455.967773,204.182755 
	C463.396240,203.790329 465.918304,200.567459 466.864777,192.148315 
M940.445068,132.560608 
	C941.277710,132.560608 942.110291,132.564133 942.942932,132.560059 
	C949.635742,132.527206 949.847290,132.306107 949.828552,125.445389 
	C949.813538,119.949959 949.863159,114.453613 949.778809,108.959282 
	C949.631653,99.379242 945.823792,94.865112 936.440674,94.516548 
	C926.639587,94.152451 916.790955,94.325722 906.993408,94.840828 
	C899.194031,95.250885 895.533386,99.735085 895.503662,107.645927 
	C895.457397,119.968742 895.426270,132.291779 895.446228,144.614639 
	C895.462646,154.754456 899.537109,158.838837 909.700256,158.928482 
	C916.160156,158.985458 922.621094,158.939148 929.803284,158.939148 
	C929.803284,164.430969 929.803284,169.538467 929.803284,174.645981 
	C929.803284,186.595474 929.803101,186.598633 917.777039,186.003998 
	C917.493347,185.989960 917.223999,185.688385 916.536865,185.271515 
	C916.536865,181.385361 916.539551,177.251480 916.535889,173.117599 
	C916.533203,170.094559 915.115601,168.445801 911.993164,168.448196 
	C907.829956,168.451370 903.665527,168.506836 899.504028,168.421219 
	C896.817322,168.365952 895.546570,169.366638 895.605286,172.216614 
	C895.745850,179.040527 895.542358,185.874298 895.794617,192.692368 
	C896.039673,199.315598 899.412537,203.647903 906.048767,204.016571 
	C917.147949,204.633194 928.330994,204.694977 939.426697,204.068985 
	C946.312195,203.680527 949.847046,198.680496 949.866943,191.802490 
	C949.897217,181.311234 949.883301,170.819870 949.902832,160.328568 
	C949.933472,143.809036 947.464600,141.339966 930.858459,141.330261 
	C925.951721,141.327393 921.044922,141.329803 916.291382,141.329803 
	C916.291382,131.379211 916.291382,122.300049 916.291382,113.186028 
	C920.678223,113.186028 924.754517,113.186028 929.176147,113.186028 
	C929.176147,116.424316 929.176086,119.389709 929.176086,122.355110 
	C929.176208,132.560623 929.176270,132.560623 940.445068,132.560608 
M883.069458,150.500092 
	C883.079651,133.670898 882.981140,116.840416 883.179260,100.013435 
	C883.226562,95.998772 882.231323,94.137291 877.920532,94.531700 
	C874.615662,94.834061 871.232910,94.864609 867.935425,94.524948 
	C863.587891,94.077133 862.722839,95.936707 862.746460,99.932365 
	C862.904846,126.758247 862.828613,153.585510 862.828552,180.412338 
	C862.828552,182.187988 862.828613,183.963623 862.828613,185.869690 
	C857.641602,185.869690 853.059143,185.869690 847.970032,185.869690 
	C847.970032,183.988617 847.970093,182.370148 847.970093,180.751694 
	C847.970032,168.254730 847.970032,155.757767 847.969910,143.260803 
	C847.969788,128.597702 847.977417,113.934586 847.960388,99.271492 
	C847.957947,97.180801 848.559143,94.569336 845.193054,94.519531 
	C839.569397,94.436325 833.943542,94.496819 828.336914,94.496819 
	C828.058411,95.975380 827.772461,96.781837 827.774048,97.587723 
	C827.834839,129.412979 827.860107,161.238586 828.058655,193.063095 
	C828.097412,199.269669 832.035217,203.610809 838.233643,203.915085 
	C849.202881,204.453506 860.213196,204.786728 871.183899,204.458176 
	C879.366028,204.213165 882.926575,199.764786 882.967896,191.490204 
	C883.034424,178.160339 883.036804,164.830139 883.069458,150.500092 
M701.964722,94.585381 
	C695.301514,94.583977 688.638367,94.578407 681.975159,94.582314 
	C674.895874,94.586464 675.027527,94.634727 674.044128,101.658089 
	C671.255432,121.575424 668.311707,141.471008 665.457947,161.379318 
	C663.594604,174.378220 661.843872,187.393661 659.900940,200.380478 
	C659.432373,203.511871 660.450684,204.660126 663.538025,204.585678 
	C667.531921,204.489380 671.535767,204.527985 675.527344,204.696594 
	C678.593811,204.826126 680.060120,203.679871 680.365295,200.499969 
	C680.916992,194.750565 681.790161,189.032013 682.531555,183.281311 
	C688.838623,183.281311 694.750549,183.281311 700.765747,183.281311 
	C701.229553,187.358322 701.737183,191.135712 702.075500,194.928223 
	C702.951782,204.750320 702.922058,204.753052 712.940857,204.752960 
	C714.939819,204.752945 716.945740,204.644760 718.936157,204.774948 
	C722.663574,205.018723 723.811890,203.789993 723.226868,199.794342 
	C718.410339,166.898392 713.738831,133.980286 709.272034,101.035179 
	C708.691406,96.752205 707.880737,93.891899 701.964722,94.585381 
M732.200378,169.350967 
	C733.660461,179.389511 735.226929,189.414322 736.524841,199.473801 
	C737.000854,203.163193 738.629761,204.681732 742.357910,204.602112 
	C749.687012,204.445618 757.024841,204.432144 764.353088,204.606781 
	C768.291260,204.700623 770.000000,203.091919 770.504150,199.206604 
	C771.702087,189.975128 773.241394,180.788376 774.595764,171.576660 
	C778.151489,147.392426 781.620117,123.195091 785.292542,99.028679 
	C785.816101,95.583801 784.755371,94.384033 781.504089,94.430481 
	C777.671997,94.485229 773.821289,94.667679 770.010559,94.376785 
	C766.251587,94.089844 764.687561,95.442001 764.275635,99.235970 
	C761.617676,123.718994 758.798767,148.184601 756.010010,172.653351 
	C755.563354,176.572281 755.003174,180.478287 754.495422,184.390274 
	C754.068237,184.376633 753.641052,184.362991 753.213867,184.349350 
	C752.808289,181.298950 752.360535,178.253448 752.003784,175.197342 
	C749.013489,149.580353 745.985962,123.967400 743.131470,98.335205 
	C742.786377,95.236427 741.415894,94.363686 738.649475,94.421974 
	C734.818298,94.502678 730.965088,94.682343 727.156128,94.380180 
	C722.325256,93.996964 721.782959,95.992661 722.429199,100.306549 
	C725.829041,123.001709 728.912781,145.744232 732.200378,169.350967 
M368.502075,94.442635 
	C362.838135,94.442665 357.158600,94.701439 351.515198,94.361000 
	C346.987885,94.087898 345.493805,95.463455 345.527100,100.201103 
	C345.737976,130.185287 345.634033,160.171677 345.634003,190.157349 
	C345.633972,205.106277 345.631653,205.015274 360.889130,204.622635 
	C364.547302,204.528488 365.873505,203.266556 365.813995,199.590088 
	C365.644165,189.097855 365.742493,178.601044 365.767700,168.106125 
	C365.771484,166.532806 365.949188,164.959900 366.058441,163.192657 
	C373.766022,163.192657 380.915955,163.333359 388.058136,163.157852 
	C397.470123,162.926559 400.960144,159.249908 400.966339,149.933289 
	C400.975464,136.106567 400.576447,122.266022 401.076294,108.457611 
	C401.460358,97.847298 394.499146,94.432388 386.990021,94.354073 
	C381.161682,94.293289 375.331543,94.406540 368.502075,94.442635 
M508.499512,94.436935 
	C500.172729,94.437263 491.843994,94.543060 483.520142,94.387215 
	C480.078003,94.322777 478.947174,95.509399 478.959412,99.024590 
	C479.076111,132.497894 479.087189,165.972015 478.952393,199.445206 
	C478.936249,203.457550 480.347778,204.672684 484.172699,204.618164 
	C495.328339,204.459106 506.487732,204.562775 517.645630,204.563019 
	C530.059082,204.563293 529.833679,204.557877 530.120483,192.142929 
	C530.231018,187.358490 528.561707,186.098495 524.087830,186.248627 
	C515.838806,186.525421 507.573883,186.327682 499.244812,186.327682 
	C499.244812,176.927368 499.244812,168.187622 499.244812,159.064209 
	C504.442657,159.064209 509.401093,159.064209 514.359497,159.064209 
	C526.855408,159.064224 526.698181,159.063766 526.734253,146.643997 
	C526.746521,142.414185 525.240540,141.119156 521.171387,141.258240 
	C513.925354,141.505844 506.664734,141.327835 499.336487,141.327835 
	C499.336487,131.552826 499.336487,122.474068 499.336487,112.910286 
	C505.189972,112.910286 510.809204,112.910286 516.428467,112.910286 
	C530.253540,112.910286 530.108765,112.910957 530.044800,99.171684 
	C530.026550,95.250626 528.447937,94.295876 524.985657,94.398323 
	C519.827576,94.550949 514.661621,94.437309 508.499512,94.436935 
M610.575073,137.499603 
	C610.575073,157.972290 610.679688,178.445923 610.492432,198.916885 
	C610.451904,203.344482 611.974854,204.762161 616.288574,204.627426 
	C624.436340,204.372971 632.597839,204.553986 640.753601,204.554001 
	C653.735107,204.554031 653.571167,204.553802 653.588379,191.553772 
	C653.594055,187.226151 651.926758,186.100098 647.953430,186.272018 
	C642.204590,186.520782 636.437012,186.335693 630.290710,186.335693 
	C630.290710,183.858429 630.290710,182.059677 630.290710,180.260910 
	C630.290710,156.625778 630.290710,132.990646 630.290710,109.355515 
	C630.290710,94.007683 630.292480,94.119232 614.988281,94.365135 
	C611.403992,94.422729 610.471130,95.665565 610.513611,99.050331 
	C610.670044,111.531715 610.575317,124.016243 610.575073,137.499603 
M814.642822,140.500198 
	C814.642700,126.851540 814.538513,113.201584 814.708069,99.555038 
	C814.756836,95.634705 813.396057,94.076958 809.483948,94.369667 
	C806.504578,94.592590 803.468445,94.667397 800.505127,94.356071 
	C795.679016,93.849030 794.233582,95.716873 794.265930,100.540825 
	C794.462280,129.834183 794.363647,159.129517 794.363953,188.424194 
	C794.363953,192.418915 794.443970,196.415665 794.341309,200.407715 
	C794.264832,203.379807 795.563110,204.669815 798.512146,204.601089 
	C802.005615,204.519623 805.521240,204.357391 808.993164,204.643585 
	C813.388306,205.005920 814.768127,203.290192 814.724792,198.923630 
	C814.534729,179.784103 814.642822,160.641617 814.642822,140.500198 
z"/>
<path fill="#FEFEFE" opacity="1.000000" stroke="none" 
	d="
M224.386948,143.498596 
	C240.784317,199.117081 206.097717,250.512802 153.502518,269.832642 
	C147.454071,272.054443 141.097061,273.436249 134.358902,275.012085 
	C133.834671,274.816589 133.596649,274.559448 133.596649,274.559448 
	C139.528336,263.822815 145.785278,253.249680 151.290909,242.298828 
	C155.861603,233.207611 156.973633,223.271088 156.092209,213.121399 
	C154.770798,197.905197 142.686646,188.764954 127.827408,192.197662 
	C122.722717,193.376907 117.852501,195.571152 112.649452,197.380188 
	C114.186630,202.676437 115.600471,207.547729 117.067520,212.602341 
	C96.887070,208.226624 81.722618,191.121399 87.548958,177.358841 
	C92.581078,179.357422 97.621590,181.359329 103.125877,183.545441 
	C104.894455,177.493835 106.549103,171.832047 108.309021,165.810074 
	C114.495071,167.975021 120.395805,170.040115 126.908142,172.319244 
	C128.776703,167.435486 130.629791,162.592117 132.594162,157.457916 
	C138.938614,159.671127 145.026901,161.794983 151.554581,164.072128 
	C153.974777,158.850586 156.383194,153.654495 158.947266,148.122559 
	C146.988846,146.578842 135.832458,146.060440 124.551010,151.168518 
	C107.640450,158.825363 90.202194,165.322479 72.929405,172.164001 
	C71.365395,172.783478 68.736191,173.099838 67.679146,172.236969 
	C58.929955,165.095093 50.434822,157.641953 41.426605,149.908524 
	C43.288982,148.752045 44.705147,147.717545 46.249702,146.937164 
	C64.752678,137.588669 83.476402,128.643066 101.610008,118.628136 
	C104.963234,116.776199 106.104050,110.710960 107.956772,106.455711 
	C108.658325,104.844406 108.666634,102.854286 108.682869,101.034088 
	C108.787323,89.323891 114.825256,81.824631 125.176331,77.162468 
	C131.823761,74.168449 138.351669,70.909050 144.509796,67.970612 
	C144.509796,52.678978 144.509796,37.743198 144.509796,21.264156 
	C155.104919,26.639067 165.170273,31.745234 175.228867,36.847958 
	C172.498016,45.781544 170.130997,53.524952 167.577637,61.877926 
	C171.254883,61.390354 174.579483,61.336338 177.617493,60.375832 
	C179.035858,59.927391 180.457260,57.888348 180.926163,56.291046 
	C184.561554,43.906906 187.964554,31.454544 191.605606,18.429028 
	C203.277206,23.276100 212.971863,30.160698 219.995819,40.082783 
	C223.856537,45.536442 226.601700,51.916828 229.015381,58.199936 
	C230.218933,61.332916 231.709152,62.825459 234.694366,64.059418 
	C270.903564,79.026779 294.179260,104.734245 299.530365,144.420502 
	C301.370270,158.066086 300.713226,171.862823 295.549377,184.753845 
	C291.687042,174.032394 287.815674,163.285995 283.944336,152.539597 
	C283.317902,152.609833 282.691437,152.680069 282.065002,152.750305 
	C282.994293,174.390915 277.322235,194.059204 265.075592,211.714981 
	C252.828690,229.371109 236.469788,241.850540 216.881958,250.210373 
	C240.627960,216.095825 245.725784,180.709610 225.359741,142.750916 
	C224.723770,142.312302 224.472717,142.299545 224.221664,142.286789 
	C224.276749,142.690720 224.331848,143.094666 224.386948,143.498596 
M205.233704,69.219070 
	C204.025833,65.260696 202.817963,61.302330 201.610092,57.343960 
	C201.245438,57.367352 200.880783,57.390743 200.516129,57.414139 
	C198.148666,66.872955 195.781204,76.331764 193.375626,85.942802 
	C199.621384,88.140579 205.116196,90.074120 210.599030,92.003441 
	C210.820053,91.401222 210.949966,91.233963 210.917938,91.107796 
	C209.129898,84.060951 207.328369,77.017532 205.233704,69.219070 
M149.834000,102.906242 
	C149.403030,102.585182 148.899780,101.920670 148.551773,101.993881 
	C141.936798,103.385689 135.281937,104.656021 128.780121,106.470299 
	C127.134712,106.929443 125.989464,109.181030 124.397148,110.834534 
	C139.635651,116.824348 139.636276,116.824806 148.577103,104.790550 
	C148.872940,104.392365 149.129257,103.964821 149.834000,102.906242 
z"/>
<path fill="#FAFAFA" opacity="1.000000" stroke="none" 
	d="
M577.582520,161.047485 
	C577.354980,160.291199 577.219421,159.868042 576.963013,159.773834 
	C574.799744,158.979187 570.899780,158.509720 570.735291,157.445740 
	C570.059204,153.072372 570.379211,148.513840 570.698425,144.049576 
	C570.749634,143.333542 572.648499,142.220459 573.716492,142.192932 
	C580.207947,142.025711 586.707153,142.054611 593.201721,142.154327 
	C596.402222,142.203461 598.065247,144.018448 598.058594,147.247208 
	C598.026489,162.738373 598.129272,178.231979 597.867188,193.719360 
	C597.770447,199.431656 594.046997,203.857651 588.301086,204.055862 
	C575.683899,204.491089 563.019226,204.411209 550.410583,203.793747 
	C545.643555,203.560287 542.515564,199.811905 541.886597,194.732925 
	C541.662292,192.921173 541.606567,191.079437 541.601196,189.251007 
	C541.522949,162.764069 541.457458,136.277084 541.408875,109.790077 
	C541.388489,98.674286 545.099854,94.696304 556.267212,94.520264 
	C566.253235,94.362854 576.262573,94.317535 586.230530,94.828522 
	C593.828430,95.218010 597.315552,99.124542 597.607910,106.661377 
	C597.865967,113.315231 597.696716,119.985756 597.710388,126.648933 
	C597.718018,130.347427 595.982239,132.235245 592.169861,131.976440 
	C591.506592,131.931412 590.837585,131.969437 590.171265,131.970566 
	C577.390808,131.992355 577.390686,131.992416 577.387146,119.423508 
	C577.386597,117.456055 577.387085,115.488594 577.387085,113.233025 
	C572.069275,113.233025 567.172180,113.233025 561.982422,113.233025 
	C561.982422,137.397278 561.982422,161.459183 561.982422,185.806335 
	C566.957336,185.806335 571.863770,185.806335 577.618469,185.806335 
	C577.618469,177.688644 577.618469,169.610870 577.582520,161.047485 
z"/>
<path fill="#FBFBFB" opacity="1.000000" stroke="none" 
	d="
M466.863403,192.599701 
	C465.918304,200.567459 463.396240,203.790329 455.967773,204.182755 
	C445.007416,204.761734 433.987030,204.733246 423.014099,204.345398 
	C416.517029,204.115738 412.157745,198.806549 412.075012,192.291626 
	C411.992554,185.793991 412.225647,179.290527 412.054352,172.796631 
	C411.972290,169.686600 413.124054,168.679428 416.124542,168.821884 
	C420.114899,169.011322 424.128937,169.024765 428.118164,168.823654 
	C431.896912,168.633133 433.154480,170.321793 432.985931,173.893692 
	C432.806061,177.705856 432.945465,181.533081 432.945465,185.722290 
	C437.203888,185.722290 441.280884,185.722290 445.787445,185.722290 
	C445.787445,177.121460 445.787445,168.276031 445.787445,158.988937 
	C439.041382,158.988937 432.418732,159.042297 425.797333,158.975937 
	C416.752594,158.885300 412.631287,154.816177 412.561615,145.853943 
	C412.464447,133.357071 412.430847,120.859467 412.428436,108.362167 
	C412.426697,99.425819 416.350433,94.920319 425.234619,94.592590 
	C435.052612,94.230408 444.902313,94.227905 454.721710,94.558556 
	C462.828217,94.831535 466.738892,99.261086 466.815308,107.347740 
	C466.878326,114.012550 466.684265,120.681252 466.830475,127.343262 
	C466.910339,130.981934 465.247009,132.569031 461.820129,132.636246 
	C458.156403,132.708115 454.491180,132.745972 450.826843,132.733948 
	C447.551178,132.723206 446.027618,131.148560 446.136566,127.745979 
	C446.289734,122.964043 446.175293,118.173546 446.175293,113.185150 
	C441.593628,113.185150 437.516235,113.185150 433.180664,113.185150 
	C433.180664,122.463974 433.180664,131.554001 433.180664,141.538193 
	C439.560455,141.538193 445.971283,141.641235 452.377594,141.514923 
	C462.959564,141.306305 466.933655,145.097763 466.921387,155.654388 
	C466.907257,167.819031 466.884033,179.983673 466.863403,192.599701 
z"/>
<path fill="#FAFAFA" opacity="1.000000" stroke="none" 
	d="
M939.984619,132.560593 
	C929.176270,132.560623 929.176208,132.560623 929.176086,122.355110 
	C929.176086,119.389709 929.176147,116.424316 929.176147,113.186028 
	C924.754517,113.186028 920.678223,113.186028 916.291382,113.186028 
	C916.291382,122.300049 916.291382,131.379211 916.291382,141.329803 
	C921.044922,141.329803 925.951721,141.327393 930.858459,141.330261 
	C947.464600,141.339966 949.933472,143.809036 949.902832,160.328568 
	C949.883301,170.819870 949.897217,181.311234 949.866943,191.802490 
	C949.847046,198.680496 946.312195,203.680527 939.426697,204.068985 
	C928.330994,204.694977 917.147949,204.633194 906.048767,204.016571 
	C899.412537,203.647903 896.039673,199.315598 895.794617,192.692368 
	C895.542358,185.874298 895.745850,179.040527 895.605286,172.216614 
	C895.546570,169.366638 896.817322,168.365952 899.504028,168.421219 
	C903.665527,168.506836 907.829956,168.451370 911.993164,168.448196 
	C915.115601,168.445801 916.533203,170.094559 916.535889,173.117599 
	C916.539551,177.251480 916.536865,181.385361 916.536865,185.271515 
	C917.223999,185.688385 917.493347,185.989960 917.777039,186.003998 
	C929.803101,186.598633 929.803284,186.595474 929.803284,174.645981 
	C929.803284,169.538467 929.803284,164.430969 929.803284,158.939148 
	C922.621094,158.939148 916.160156,158.985458 909.700256,158.928482 
	C899.537109,158.838837 895.462646,154.754456 895.446228,144.614639 
	C895.426270,132.291779 895.457397,119.968742 895.503662,107.645927 
	C895.533386,99.735085 899.194031,95.250885 906.993408,94.840828 
	C916.790955,94.325722 926.639587,94.152451 936.440674,94.516548 
	C945.823792,94.865112 949.631653,99.379242 949.778809,108.959282 
	C949.863159,114.453613 949.813538,119.949959 949.828552,125.445389 
	C949.847290,132.306107 949.635742,132.527206 942.942932,132.560059 
	C942.110291,132.564133 941.277710,132.560608 939.984619,132.560593 
z"/>
<path fill="#FDFDFD" opacity="1.000000" stroke="none" 
	d="
M883.067871,151.000092 
	C883.036804,164.830139 883.034424,178.160339 882.967896,191.490204 
	C882.926575,199.764786 879.366028,204.213165 871.183899,204.458176 
	C860.213196,204.786728 849.202881,204.453506 838.233643,203.915085 
	C832.035217,203.610809 828.097412,199.269669 828.058655,193.063095 
	C827.860107,161.238586 827.834839,129.412979 827.774048,97.587723 
	C827.772461,96.781837 828.058411,95.975380 828.336914,94.496819 
	C833.943542,94.496819 839.569397,94.436325 845.193054,94.519531 
	C848.559143,94.569336 847.957947,97.180801 847.960388,99.271492 
	C847.977417,113.934586 847.969788,128.597702 847.969910,143.260803 
	C847.970032,155.757767 847.970032,168.254730 847.970093,180.751694 
	C847.970093,182.370148 847.970032,183.988617 847.970032,185.869690 
	C853.059143,185.869690 857.641602,185.869690 862.828613,185.869690 
	C862.828613,183.963623 862.828552,182.187988 862.828552,180.412338 
	C862.828613,153.585510 862.904846,126.758247 862.746460,99.932365 
	C862.722839,95.936707 863.587891,94.077133 867.935425,94.524948 
	C871.232910,94.864609 874.615662,94.834061 877.920532,94.531700 
	C882.231323,94.137291 883.226562,95.998772 883.179260,100.013435 
	C882.981140,116.840416 883.079651,133.670898 883.067871,151.000092 
z"/>
<path fill="#FBFBFB" opacity="1.000000" stroke="none" 
	d="
M702.409241,94.599701 
	C707.880737,93.891899 708.691406,96.752205 709.272034,101.035179 
	C713.738831,133.980286 718.410339,166.898392 723.226868,199.794342 
	C723.811890,203.789993 722.663574,205.018723 718.936157,204.774948 
	C716.945740,204.644760 714.939819,204.752945 712.940857,204.752960 
	C702.922058,204.753052 702.951782,204.750320 702.075500,194.928223 
	C701.737183,191.135712 701.229553,187.358322 700.765747,183.281311 
	C694.750549,183.281311 688.838623,183.281311 682.531555,183.281311 
	C681.790161,189.032013 680.916992,194.750565 680.365295,200.499969 
	C680.060120,203.679871 678.593811,204.826126 675.527344,204.696594 
	C671.535767,204.527985 667.531921,204.489380 663.538025,204.585678 
	C660.450684,204.660126 659.432373,203.511871 659.900940,200.380478 
	C661.843872,187.393661 663.594604,174.378220 665.457947,161.379318 
	C668.311707,141.471008 671.255432,121.575424 674.044128,101.658089 
	C675.027527,94.634727 674.895874,94.586464 681.975159,94.582314 
	C688.638367,94.578407 695.301514,94.583977 702.409241,94.599701 
M693.037537,119.536522 
	C692.709900,117.347038 692.382202,115.157555 692.054565,112.968079 
	C691.557251,112.975319 691.059937,112.982552 690.562683,112.989792 
	C688.455017,130.594864 686.347290,148.199921 684.200378,166.133011 
	C689.090027,166.133011 693.488892,166.133011 698.511902,166.133011 
	C696.670532,150.629227 694.876099,135.520096 693.037537,119.536522 
z"/>
<path fill="#FBFBFB" opacity="1.000000" stroke="none" 
	d="
M732.153320,168.910645 
	C728.912781,145.744232 725.829041,123.001709 722.429199,100.306549 
	C721.782959,95.992661 722.325256,93.996964 727.156128,94.380180 
	C730.965088,94.682343 734.818298,94.502678 738.649475,94.421974 
	C741.415894,94.363686 742.786377,95.236427 743.131470,98.335205 
	C745.985962,123.967400 749.013489,149.580353 752.003784,175.197342 
	C752.360535,178.253448 752.808289,181.298950 753.213867,184.349350 
	C753.641052,184.362991 754.068237,184.376633 754.495422,184.390274 
	C755.003174,180.478287 755.563354,176.572281 756.010010,172.653351 
	C758.798767,148.184601 761.617676,123.718994 764.275635,99.235970 
	C764.687561,95.442001 766.251587,94.089844 770.010559,94.376785 
	C773.821289,94.667679 777.671997,94.485229 781.504089,94.430481 
	C784.755371,94.384033 785.816101,95.583801 785.292542,99.028679 
	C781.620117,123.195091 778.151489,147.392426 774.595764,171.576660 
	C773.241394,180.788376 771.702087,189.975128 770.504150,199.206604 
	C770.000000,203.091919 768.291260,204.700623 764.353088,204.606781 
	C757.024841,204.432144 749.687012,204.445618 742.357910,204.602112 
	C738.629761,204.681732 737.000854,203.163193 736.524841,199.473801 
	C735.226929,189.414322 733.660461,179.389511 732.153320,168.910645 
z"/>
<path fill="#FBFBFB" opacity="1.000000" stroke="none" 
	d="
M369.002136,94.442535 
	C375.331543,94.406540 381.161682,94.293289 386.990021,94.354073 
	C394.499146,94.432388 401.460358,97.847298 401.076294,108.457611 
	C400.576447,122.266022 400.975464,136.106567 400.966339,149.933289 
	C400.960144,159.249908 397.470123,162.926559 388.058136,163.157852 
	C380.915955,163.333359 373.766022,163.192657 366.058441,163.192657 
	C365.949188,164.959900 365.771484,166.532806 365.767700,168.106125 
	C365.742493,178.601044 365.644165,189.097855 365.813995,199.590088 
	C365.873505,203.266556 364.547302,204.528488 360.889130,204.622635 
	C345.631653,205.015274 345.633972,205.106277 345.634003,190.157349 
	C345.634033,160.171677 345.737976,130.185287 345.527100,100.201103 
	C345.493805,95.463455 346.987885,94.087898 351.515198,94.361000 
	C357.158600,94.701439 362.838135,94.442665 369.002136,94.442535 
M367.601929,112.947937 
	C366.992310,113.345146 365.854218,113.737282 365.850342,114.140297 
	C365.752228,124.352783 365.773071,134.566406 365.773071,144.642883 
	C370.996124,144.642883 375.539185,144.642883 379.854034,144.642883 
	C379.854034,133.896744 379.854034,123.519051 379.854034,112.941635 
	C375.853455,112.941635 372.216949,112.941635 367.601929,112.947937 
z"/>
<path fill="#FAFAFA" opacity="1.000000" stroke="none" 
	d="
M508.999268,94.436951 
	C514.661621,94.437309 519.827576,94.550949 524.985657,94.398323 
	C528.447937,94.295876 530.026550,95.250626 530.044800,99.171684 
	C530.108765,112.910957 530.253540,112.910286 516.428467,112.910286 
	C510.809204,112.910286 505.189972,112.910286 499.336487,112.910286 
	C499.336487,122.474068 499.336487,131.552826 499.336487,141.327835 
	C506.664734,141.327835 513.925354,141.505844 521.171387,141.258240 
	C525.240540,141.119156 526.746521,142.414185 526.734253,146.643997 
	C526.698181,159.063766 526.855408,159.064224 514.359497,159.064209 
	C509.401093,159.064209 504.442657,159.064209 499.244812,159.064209 
	C499.244812,168.187622 499.244812,176.927368 499.244812,186.327682 
	C507.573883,186.327682 515.838806,186.525421 524.087830,186.248627 
	C528.561707,186.098495 530.231018,187.358490 530.120483,192.142929 
	C529.833679,204.557877 530.059082,204.563293 517.645630,204.563019 
	C506.487732,204.562775 495.328339,204.459106 484.172699,204.618164 
	C480.347778,204.672684 478.936249,203.457550 478.952393,199.445206 
	C479.087189,165.972015 479.076111,132.497894 478.959412,99.024590 
	C478.947174,95.509399 480.078003,94.322777 483.520142,94.387215 
	C491.843994,94.543060 500.172729,94.437263 508.999268,94.436951 
z"/>
<path fill="#FCFCFC" opacity="1.000000" stroke="none" 
	d="
M610.575073,136.999603 
	C610.575317,124.016243 610.670044,111.531715 610.513611,99.050331 
	C610.471130,95.665565 611.403992,94.422729 614.988281,94.365135 
	C630.292480,94.119232 630.290710,94.007683 630.290710,109.355515 
	C630.290710,132.990646 630.290710,156.625778 630.290710,180.260910 
	C630.290710,182.059677 630.290710,183.858429 630.290710,186.335693 
	C636.437012,186.335693 642.204590,186.520782 647.953430,186.272018 
	C651.926758,186.100098 653.594055,187.226151 653.588379,191.553772 
	C653.571167,204.553802 653.735107,204.554031 640.753601,204.554001 
	C632.597839,204.553986 624.436340,204.372971 616.288574,204.627426 
	C611.974854,204.762161 610.451904,203.344482 610.492432,198.916885 
	C610.679688,178.445923 610.575073,157.972290 610.575073,136.999603 
z"/>
<path fill="#F4F4F4" opacity="1.000000" stroke="none" 
	d="
M814.642822,141.000214 
	C814.642822,160.641617 814.534729,179.784103 814.724792,198.923630 
	C814.768127,203.290192 813.388306,205.005920 808.993164,204.643585 
	C805.521240,204.357391 802.005615,204.519623 798.512146,204.601089 
	C795.563110,204.669815 794.264832,203.379807 794.341309,200.407715 
	C794.443970,196.415665 794.363953,192.418915 794.363953,188.424194 
	C794.363647,159.129517 794.462280,129.834183 794.265930,100.540825 
	C794.233582,95.716873 795.679016,93.849030 800.505127,94.356071 
	C803.468445,94.667397 806.504578,94.592590 809.483948,94.369667 
	C813.396057,94.076958 814.756836,95.634705 814.708069,99.555038 
	C814.538513,113.201584 814.642700,126.851540 814.642822,141.000214 
z"/>
<path fill="#FEFEFE" opacity="1.000000" stroke="none" 
	d="
M133.952698,274.946106 
	C133.913910,275.258606 133.757111,275.441589 133.600311,275.624603 
	C133.507843,275.378021 133.415359,275.131439 133.459763,274.722168 
	C133.596649,274.559448 133.834671,274.816589 133.952698,274.946106 
z"/>
<path fill="#202020" opacity="1.000000" stroke="none" 
	d="
M205.380936,69.596420 
	C207.328369,77.017532 209.129898,84.060951 210.917938,91.107796 
	C210.949966,91.233963 210.820053,91.401222 210.599030,92.003441 
	C205.116196,90.074120 199.621384,88.140579 193.375626,85.942802 
	C195.781204,76.331764 198.148666,66.872955 200.516129,57.414139 
	C200.880783,57.390743 201.245438,57.367352 201.610092,57.343960 
	C202.817963,61.302330 204.025833,65.260696 205.380936,69.596420 
z"/>
<path fill="#212121" opacity="1.000000" stroke="none" 
	d="
M149.619003,103.228607 
	C149.129257,103.964821 148.872940,104.392365 148.577103,104.790550 
	C139.636276,116.824806 139.635651,116.824348 124.397148,110.834534 
	C125.989464,109.181030 127.134712,106.929443 128.780121,106.470299 
	C135.281937,104.656021 141.936798,103.385689 148.551773,101.993881 
	C148.899780,101.920670 149.403030,102.585182 149.619003,103.228607 
z"/>
<path fill="#1A1A1A" opacity="1.000000" stroke="none" 
	d="
M224.577393,143.351868 
	C224.331848,143.094666 224.276749,142.690720 224.221664,142.286789 
	C224.472717,142.299545 224.723770,142.312302 225.047150,142.601135 
	C225.119461,142.877197 224.767853,143.205154 224.577393,143.351868 
z"/>
<path fill="#1F1F1F" opacity="1.000000" stroke="none" 
	d="
M693.059570,119.973747 
	C694.876099,135.520096 696.670532,150.629227 698.511902,166.133011 
	C693.488892,166.133011 689.090027,166.133011 684.200378,166.133011 
	C686.347290,148.199921 688.455017,130.594864 690.562683,112.989792 
	C691.059937,112.982552 691.557251,112.975319 692.054565,112.968079 
	C692.382202,115.157555 692.709900,117.347038 693.059570,119.973747 
z"/>
<path fill="#191919" opacity="1.000000" stroke="none" 
	d="
M368.091187,112.944786 
	C372.216949,112.941635 375.853455,112.941635 379.854034,112.941635 
	C379.854034,123.519051 379.854034,133.896744 379.854034,144.642883 
	C375.539185,144.642883 370.996124,144.642883 365.773071,144.642883 
	C365.773071,134.566406 365.752228,124.352783 365.850342,114.140297 
	C365.854218,113.737282 366.992310,113.345146 368.091187,112.944786 
z"/>
</svg>