<?xml version="1.0" encoding="UTF-8" standalone="no"?>
<!DOCTYPE svg PUBLIC "-//W3C//DTD SVG 1.1//EN" "http://www.w3.org/Graphics/SVG/1.1/DTD/svg11.dtd">
<svg xmlns="http://www.w3.org/2000/svg" version="1.1" viewBox="0.00 0.00 843.00 538.00">
<path fill="rgba(0,0,0,0)" d="
  M 843.00 0.00
  L 843.00 538.00
  L 0.00 538.00
  L 0.00 0.00
  L 843.00 0.00
  Z"
/>
<g fill="#ffffff">
<path d="
  M 272.17 30.80
  Q 277.32 30.80 288.52 31.15
  C 308.44 31.78 376.02 39.45 377.39 68.99
  C 377.84 78.69 366.90 86.65 358.50 90.31
  Q 348.89 94.50 340.51 96.74
  C 318.39 102.67 295.15 105.19 272.19 105.19
  C 249.23 105.20 225.98 102.68 203.87 96.77
  Q 195.48 94.53 185.87 90.34
  C 177.47 86.69 166.53 78.73 166.97 69.03
  C 168.33 39.49 235.91 31.79 255.83 31.16
  Q 267.02 30.80 272.17 30.80
  Z"
/>
<path d="
  M 475.40 67.94
  C 476.46 55.32 490.84 47.25 501.59 43.39
  Q 520.60 36.55 537.54 34.04
  Q 571.97 28.94 607.27 31.96
  Q 630.47 33.94 650.92 40.13
  C 662.10 43.51 681.23 51.39 684.16 64.04
  Q 685.72 70.74 683.14 75.63
  C 678.64 84.15 668.72 89.88 659.79 93.07
  Q 646.17 97.92 636.20 99.73
  Q 603.90 105.58 579.49 105.34
  Q 557.35 105.13 527.21 100.14
  Q 523.60 99.54 512.04 96.56
  Q 499.71 93.37 489.15 87.94
  Q 484.95 85.77 480.66 81.62
  Q 474.73 75.88 475.40 67.94
  Z"
/>
<path d="
  M 296.33 131.05
  Q 298.29 130.96 303.05 129.82
  Q 318.23 126.17 336.06 122.87
  C 347.84 120.68 360.99 117.60 372.71 115.65
  C 377.44 114.87 379.61 113.38 382.57 109.82
  C 388.07 103.19 391.71 97.89 399.02 95.22
  Q 402.75 93.86 411.06 93.27
  Q 421.26 92.53 437.77 92.99
  C 442.97 93.13 449.77 93.82 453.97 95.22
  Q 459.17 96.95 462.95 101.58
  Q 469.17 109.18 471.70 112.60
  Q 472.96 114.30 476.63 114.99
  Q 500.62 119.48 511.86 121.91
  Q 534.12 126.70 554.73 131.06
  A 1.00 1.00 0.0 0 0 555.94 130.12
  Q 556.36 118.67 565.34 114.89
  Q 568.45 113.59 574.01 113.57
  Q 583.74 113.55 587.01 113.51
  Q 593.42 113.45 595.43 114.44
  C 599.60 116.51 603.89 121.85 604.54 126.41
  Q 604.81 128.23 605.16 133.26
  Q 605.72 141.22 600.56 144.53
  Q 598.02 146.17 590.06 147.31
  C 581.04 148.61 571.11 149.88 561.99 151.36
  Q 545.91 153.97 498.06 162.02
  C 485.68 164.10 484.59 175.65 480.00 184.95
  A 2.24 2.23 -76.7 0 1 477.98 186.20
  Q 428.87 186.01 373.51 186.26
  Q 370.66 186.27 370.23 183.81
  Q 368.60 174.44 362.68 166.90
  C 359.67 163.07 353.76 161.81 348.82 160.94
  Q 318.47 155.60 299.21 152.37
  Q 280.93 149.30 264.00 147.56
  Q 262.29 147.38 254.23 145.54
  Q 246.78 143.83 246.65 136.26
  C 246.51 128.10 247.60 121.09 254.54 115.77
  C 256.55 114.23 258.28 113.64 260.97 113.66
  Q 268.11 113.70 279.68 113.52
  Q 283.83 113.46 286.41 114.73
  Q 291.20 117.11 293.79 121.86
  C 295.16 124.37 294.32 128.28 295.56 130.60
  Q 295.80 131.07 296.33 131.05
  Z"
/>
<path d="
  M 441.67 198.18
  L 436.28 218.24
  A 0.43 0.43 0.0 0 1 435.86 218.56
  L 416.65 218.56
  A 0.43 0.43 0.0 0 1 416.23 218.25
  L 410.58 198.19
  A 0.43 0.43 0.0 0 1 411.00 197.64
  L 441.26 197.64
  A 0.43 0.43 0.0 0 1 441.67 198.18
  Z"
/>
<path d="
  M 338.77 289.91
  Q 341.40 287.22 342.81 283.24
  C 346.04 274.13 352.81 255.18 358.20 241.49
  Q 365.25 223.57 374.26 199.94
  Q 375.17 197.55 377.73 197.68
  L 390.06 198.34
  Q 391.15 198.40 390.76 199.42
  Q 377.66 234.11 362.04 273.27
  Q 358.50 282.15 353.72 295.21
  Q 351.59 301.01 347.94 303.93
  Q 346.68 304.93 343.75 304.94
  Q 330.00 304.99 320.00 304.86
  C 310.49 304.75 312.72 293.82 318.86 291.29
  Q 320.57 290.59 324.70 290.59
  Q 328.64 290.59 336.76 290.73
  A 2.73 2.70 -66.9 0 0 338.77 289.91
  Z"
/>
<path d="
  M 512.34 289.23
  A 2.67 2.65 -11.0 0 0 514.21 290.48
  C 518.74 291.19 524.90 290.89 529.08 290.60
  C 533.81 290.27 537.71 293.66 537.96 298.22
  C 538.18 302.09 535.55 305.18 531.77 305.09
  Q 525.12 304.92 508.56 304.93
  C 503.54 304.94 500.50 300.81 498.87 296.66
  Q 480.04 248.52 461.53 200.96
  Q 461.22 200.17 461.26 199.34
  Q 461.29 198.54 462.09 198.54
  L 476.29 198.54
  A 1.27 1.27 0.0 0 1 477.48 199.36
  Q 484.01 216.32 507.44 277.68
  C 508.88 281.42 510.12 285.57 512.34 289.23
  Z"
/>
<path d="
  M 400.36 274.19
  C 398.41 271.48 389.78 274.79 385.97 272.24
  A 1.83 1.65 -88.4 0 1 385.33 271.49
  Q 385.00 270.78 384.67 267.55
  Q 383.82 259.19 384.97 250.00
  Q 385.71 244.10 390.49 243.27
  C 394.10 242.64 399.99 244.89 402.75 242.49
  Q 403.13 242.17 406.71 238.75
  Q 417.48 228.50 431.71 231.24
  Q 440.42 232.91 446.49 239.22
  C 456.58 249.69 458.06 264.34 449.72 276.45
  C 445.03 283.26 439.65 286.03 432.21 288.51
  C 424.33 291.13 413.93 287.58 408.09 283.08
  Q 405.13 280.80 400.36 274.19
  Z"
/>
<path d="
  M 189.50 401.55
  L 189.50 440.51
  Q 189.50 442.59 187.41 442.59
  L 176.24 442.59
  Q 173.37 442.59 173.37 439.72
  L 173.37 372.34
  Q 173.37 369.47 176.25 369.47
  L 186.26 369.47
  A 3.55 3.53 -16.0 0 1 189.26 371.12
  L 209.79 403.66
  A 0.85 0.85 0.0 0 0 211.22 403.67
  C 217.79 393.57 224.60 380.94 232.58 370.29
  A 2.94 2.89 18.1 0 1 234.92 369.13
  L 245.22 369.13
  Q 247.54 369.13 247.54 371.45
  L 247.54 441.13
  A 1.32 1.31 -90.0 0 1 246.23 442.45
  L 233.58 442.45
  Q 231.16 442.45 231.17 440.03
  Q 231.17 419.60 231.45 411.51
  Q 231.60 407.27 231.03 401.49
  Q 230.87 399.81 229.84 401.16
  Q 228.85 402.46 226.45 406.43
  Q 218.37 419.84 214.75 425.45
  Q 213.18 427.89 210.95 428.08
  A 1.68 1.64 -32.0 0 1 210.00 427.87
  Q 208.43 426.96 206.96 424.78
  Q 202.70 418.46 191.13 401.06
  Q 189.50 398.60 189.50 401.55
  Z"
/>
<rect x="145.25" y="369.40" width="16.46" height="73.26" rx="1.75"/>
<path d="
  M 95.41 385.30
  L 75.95 385.30
  A 2.41 2.40 90.0 0 1 73.55 382.89
  L 73.55 372.72
  Q 73.55 369.66 76.53 369.66
  L 134.55 369.66
  Q 135.33 369.66 135.42 370.43
  C 135.95 374.98 138.25 385.20 132.83 385.29
  Q 131.56 385.31 112.97 385.01
  A 0.88 0.88 0.0 0 0 112.08 385.89
  L 112.08 440.45
  Q 112.08 442.55 109.98 442.55
  L 97.25 442.55
  A 1.51 1.51 0.0 0 1 95.74 441.04
  L 95.74 385.63
  A 0.33 0.33 0.0 0 0 95.41 385.30
  Z"
/>
<path d="
  M 276.63 414.54
  A 1.83 1.81 12.6 0 0 275.03 415.55
  C 272.12 421.44 276.86 427.41 283.12 427.42
  Q 305.01 427.43 314.37 427.42
  A 2.06 2.06 0.0 0 1 316.44 429.48
  L 316.44 441.37
  A 1.46 1.45 -89.4 0 1 314.96 442.83
  Q 300.30 442.52 284.25 442.87
  C 280.16 442.96 276.15 442.89 272.51 441.22
  Q 264.53 437.56 260.54 428.21
  Q 259.17 425.01 259.15 422.51
  Q 259.00 409.52 259.33 392.50
  Q 259.46 386.03 260.82 383.01
  C 263.16 377.84 268.65 372.47 274.15 370.58
  Q 276.76 369.68 282.46 369.64
  Q 283.89 369.63 310.90 369.58
  C 314.03 369.58 315.89 369.01 316.11 372.70
  Q 316.40 377.70 315.89 383.26
  A 1.80 1.80 0.0 0 1 314.05 384.90
  Q 303.24 384.66 283.00 384.85
  C 277.23 384.90 273.96 389.61 273.99 395.01
  Q 274.02 399.79 279.00 399.83
  Q 295.74 399.96 302.39 399.87
  A 1.94 1.93 80.9 0 1 304.26 401.23
  Q 306.21 407.54 304.26 413.58
  Q 304.11 414.06 303.65 414.26
  Q 302.63 414.69 301.03 414.67
  Q 285.43 414.40 276.63 414.54
  Z"
/>
<path d="
  M 252.3431 491.6200
  A 12.04 11.60 86.7 0 1 240.0692 480.2677
  A 12.04 11.60 86.7 0 1 250.9569 467.5800
  A 12.04 11.60 86.7 0 1 263.2308 478.9323
  A 12.04 11.60 86.7 0 1 252.3431 491.6200
  Z"
/>
<path d="
  M 541.26 476.06
  Q 541.23 476.10 541.19 476.12
  Q 541.19 476.13 541.18 476.24
  L 540.95 489.10
  A 1.79 1.78 -88.0 0 1 539.07 490.86
  L 537.56 490.78
  Q 535.93 490.69 535.94 489.05
  Q 536.04 479.90 536.43 472.10
  C 536.57 469.29 537.35 467.53 540.27 467.58
  C 544.18 467.66 547.13 476.98 548.96 480.99
  Q 549.18 481.48 549.40 480.99
  C 551.05 477.14 554.48 466.67 559.27 467.77
  Q 561.70 468.33 561.62 471.31
  Q 561.57 473.11 561.59 489.70
  A 1.34 1.33 -88.4 0 1 560.18 491.04
  L 557.93 490.92
  Q 556.63 490.85 556.63 489.55
  L 556.63 477.62
  Q 556.63 476.61 556.20 477.52
  L 550.65 489.36
  A 2.40 2.40 0.0 0 1 546.22 489.15
  L 541.62 476.23
  Q 541.47 475.79 541.26 476.06
  Z"
/>
<path d="
  M 414.31 477.13
  Q 413.85 476.48 413.85 477.27
  L 413.85 489.51
  Q 413.85 490.88 412.48 490.88
  L 410.06 490.88
  Q 408.70 490.88 408.68 489.53
  Q 408.57 484.08 408.82 474.76
  Q 408.93 470.54 409.46 468.59
  Q 409.60 468.07 410.13 467.96
  C 413.27 467.28 414.14 467.67 415.97 470.35
  Q 419.67 475.78 422.68 480.44
  Q 423.96 482.43 424.01 480.09
  L 424.21 470.02
  Q 424.25 467.81 426.57 467.75
  L 426.66 467.74
  Q 428.83 467.64 428.79 470.15
  Q 428.63 480.40 428.63 488.39
  Q 428.63 491.13 425.34 491.04
  Q 423.01 490.98 422.48 490.02
  Q 418.88 483.51 414.31 477.13
  Z"
/>
<path d="
  M 469.08 477.36
  L 476.78 477.36
  A 0.83 0.83 0.0 0 1 477.61 478.23
  L 477.43 481.61
  A 0.83 0.83 0.0 0 1 476.60 482.40
  L 468.53 482.40
  A 0.83 0.83 0.0 0 0 467.70 483.19
  L 467.58 485.50
  A 0.83 0.83 0.0 0 0 468.41 486.37
  L 478.52 486.37
  A 0.83 0.83 0.0 0 1 479.35 487.20
  L 479.35 490.41
  A 0.83 0.83 0.0 0 1 478.52 491.24
  L 462.80 491.24
  A 0.83 0.83 0.0 0 1 461.97 490.41
  L 461.97 469.08
  A 0.83 0.83 0.0 0 1 462.80 468.25
  L 478.55 468.25
  A 0.83 0.83 0.0 0 1 479.38 469.08
  L 479.38 472.68
  A 0.83 0.83 0.0 0 1 478.55 473.51
  L 468.15 473.51
  A 0.83 0.83 0.0 0 0 467.39 474.66
  L 468.32 476.85
  A 0.83 0.83 0.0 0 0 469.08 477.36
  Z"
/>
<path d="
  M 606.98 480.45
  Q 607.45 481.06 607.49 480.29
  L 608.08 469.28
  Q 608.12 468.61 608.78 468.61
  L 612.81 468.61
  Q 613.43 468.61 613.43 469.23
  L 613.43 489.08
  A 1.84 1.84 0.0 0 1 612.15 490.83
  Q 610.38 491.40 608.69 490.92
  Q 608.18 490.78 607.90 490.36
  L 599.35 477.83
  Q 598.74 476.95 598.74 478.02
  L 598.74 489.54
  Q 598.74 490.80 597.48 490.80
  L 594.53 490.80
  Q 593.16 490.80 593.13 489.43
  Q 592.99 482.24 593.10 471.02
  Q 593.11 469.46 593.65 468.45
  A 1.01 1.01 0.0 0 1 594.43 467.92
  Q 598.27 467.48 600.19 470.42
  Q 605.39 478.40 606.98 480.45
  Z"
/>
<path d="
  M 626.47 489.77
  L 626.47 474.39
  A 1.01 1.01 0.0 0 0 625.46 473.38
  L 620.42 473.38
  A 1.01 1.01 0.0 0 1 619.41 472.37
  L 619.41 469.09
  A 1.01 1.01 0.0 0 1 620.42 468.08
  L 638.68 468.08
  A 1.01 1.01 0.0 0 1 639.69 469.14
  L 639.52 472.39
  A 1.01 1.01 0.0 0 1 638.51 473.35
  L 633.37 473.35
  A 1.01 1.01 0.0 0 0 632.36 474.36
  L 632.36 489.77
  A 1.01 1.01 0.0 0 1 631.35 490.78
  L 627.48 490.78
  A 1.01 1.01 0.0 0 1 626.47 489.77
  Z"
/>
<path d="
  M 221.58 484.98
  A 0.90 0.90 0.0 0 0 220.78 485.87
  L 220.78 489.83
  Q 220.78 491.41 219.21 491.41
  L 217.01 491.41
  Q 215.24 491.41 215.24 489.64
  L 215.24 469.34
  Q 215.24 468.36 216.22 468.30
  Q 218.17 468.20 224.58 468.04
  C 230.55 467.90 234.57 469.69 235.36 475.75
  C 235.72 478.46 234.35 479.79 232.67 482.84
  A 1.41 1.41 0.0 0 0 232.53 483.81
  Q 233.10 486.56 234.55 488.82
  Q 235.67 490.57 233.60 490.91
  L 231.63 491.23
  Q 229.40 491.59 228.51 489.51
  L 227.02 485.99
  Q 226.79 485.45 226.22 485.28
  Q 224.21 484.67 221.58 484.98
  Z"
/>
<path d="
  M 275.44 477.06
  A 0.34 0.27 16.2 0 0 274.97 477.25
  L 274.71 489.96
  Q 274.69 491.34 273.24 491.18
  L 270.87 490.91
  Q 269.49 490.76 269.49 489.32
  L 269.49 470.31
  Q 269.49 468.61 271.18 468.42
  L 274.35 468.05
  Q 274.84 467.99 275.23 468.40
  C 278.57 471.88 280.99 476.11 283.34 479.32
  Q 284.59 481.01 284.59 478.91
  L 284.59 469.69
  Q 284.59 468.61 285.66 468.45
  L 288.93 467.98
  A 0.93 0.92 -3.7 0 1 290.00 468.90
  Q 289.93 472.61 289.67 488.00
  Q 289.64 490.00 288.77 490.65
  C 286.34 492.51 283.89 490.76 282.59 488.34
  Q 282.56 488.28 275.96 477.66
  Q 275.65 477.16 275.44 477.06
  Z"
/>
<path d="
  M 304.31 486.00
  L 313.44 486.00
  A 0.94 0.94 0.0 0 1 314.38 486.94
  L 314.38 490.02
  A 0.94 0.94 0.0 0 1 313.44 490.96
  L 298.13 490.96
  A 0.94 0.94 0.0 0 1 297.19 490.02
  L 297.19 469.16
  A 0.94 0.94 0.0 0 1 298.13 468.22
  L 313.53 468.22
  A 0.94 0.94 0.0 0 1 314.47 469.16
  L 314.47 472.46
  A 0.94 0.94 0.0 0 1 313.53 473.40
  L 304.58 473.40
  A 0.94 0.94 0.0 0 0 303.64 474.34
  L 303.64 476.65
  A 0.94 0.94 0.0 0 0 304.58 477.59
  L 312.25 477.59
  A 0.94 0.94 0.0 0 1 313.19 478.58
  L 313.05 481.17
  A 0.94 0.94 0.0 0 1 312.11 482.06
  L 304.42 482.06
  A 0.94 0.94 0.0 0 0 303.48 482.95
  L 303.37 485.01
  A 0.94 0.94 0.0 0 0 304.31 486.00
  Z"
/>
<path d="
  M 326.75 474.90
  Q 326.20 476.49 328.21 476.80
  C 331.01 477.23 337.57 476.82 339.75 480.98
  C 341.90 485.08 339.90 488.07 336.53 490.27
  C 332.62 492.82 326.59 491.74 322.46 489.84
  Q 320.89 489.12 320.27 487.89
  A 2.05 2.05 0.0 0 1 321.36 485.05
  Q 322.46 484.63 324.10 484.78
  Q 324.58 484.83 324.97 485.14
  Q 328.41 487.91 332.32 486.34
  Q 333.83 485.73 333.98 484.36
  A 1.34 1.33 -85.1 0 0 332.74 482.88
  C 327.81 482.56 321.48 481.97 320.92 476.23
  C 320.16 468.42 328.43 467.37 333.90 468.40
  Q 338.32 469.23 339.58 472.64
  Q 339.76 473.13 339.36 473.45
  Q 337.83 474.68 335.94 475.21
  A 0.90 0.90 0.0 0 1 335.07 474.99
  Q 331.64 471.61 327.25 474.29
  A 1.15 1.13 85.1 0 0 326.75 474.90
  Z"
/>
<path d="
  M 445.51 482.16
  C 446.15 481.84 448.33 475.28 450.16 470.21
  Q 451.14 467.51 454.03 468.21
  L 454.53 468.32
  Q 457.21 468.97 455.98 471.58
  Q 453.16 477.60 450.23 485.71
  C 449.68 487.21 447.83 491.03 445.57 490.96
  C 443.56 490.90 442.73 490.49 441.79 488.64
  Q 437.03 479.31 434.25 469.18
  Q 433.95 468.10 435.07 468.10
  L 437.78 468.10
  A 1.78 1.77 78.4 0 1 439.41 469.18
  L 444.82 481.91
  Q 445.03 482.40 445.51 482.16
  Z"
/>
<path d="
  M 498.95 485.13
  Q 499.11 484.91 499.17 484.60
  Q 499.44 483.15 497.97 483.12
  C 493.43 483.01 490.25 483.06 487.23 479.51
  C 484.53 476.34 485.49 472.54 488.24 469.91
  C 491.37 466.93 498.65 467.82 502.62 469.32
  Q 505.14 470.27 504.69 472.92
  Q 504.66 473.06 504.63 473.23
  Q 504.17 475.82 501.69 474.94
  C 498.17 473.68 491.41 471.94 490.80 475.57
  A 1.31 1.30 8.0 0 0 491.95 477.09
  C 497.68 477.69 506.97 477.34 505.62 485.74
  C 504.46 492.98 492.81 492.13 488.18 490.56
  A 3.81 3.80 9.4 0 1 485.60 486.96
  L 485.60 486.12
  Q 485.60 484.19 487.44 484.76
  Q 493.60 486.66 497.30 486.37
  Q 498.12 486.30 498.95 485.13
  Z"
/>
<path d="
  M 517.60 473.37
  Q 513.82 472.62 511.25 472.97
  Q 510.44 473.09 510.49 472.27
  L 510.63 469.56
  A 1.39 1.39 0.0 0 1 512.02 468.24
  L 528.73 468.24
  A 1.53 1.53 0.0 0 1 530.26 469.77
  L 530.26 472.18
  Q 530.26 473.22 529.22 473.22
  L 525.42 473.22
  A 1.36 1.36 0.0 0 0 524.06 474.58
  L 524.06 489.83
  Q 524.06 491.35 522.54 491.27
  L 519.65 491.12
  Q 518.14 491.03 518.14 489.53
  L 518.14 474.04
  Q 518.14 473.48 517.60 473.37
  Z"
/>
<path d="
  M 575.53 486.11
  L 585.50 486.11
  A 0.87 0.87 0.0 0 1 586.37 486.98
  L 586.37 490.01
  A 0.87 0.87 0.0 0 1 585.50 490.88
  L 569.92 490.88
  A 0.87 0.87 0.0 0 1 569.05 490.01
  L 569.05 469.02
  A 0.87 0.87 0.0 0 1 569.92 468.15
  L 585.57 468.15
  A 0.87 0.87 0.0 0 1 586.44 469.02
  L 586.44 472.48
  A 0.87 0.87 0.0 0 1 585.57 473.35
  L 575.69 473.35
  A 0.87 0.87 0.0 0 0 574.82 474.22
  L 574.82 476.64
  A 0.87 0.87 0.0 0 0 575.69 477.51
  L 584.51 477.51
  A 0.87 0.87 0.0 0 1 585.38 478.43
  L 585.21 481.45
  A 0.87 0.87 0.0 0 1 584.35 482.27
  L 575.53 482.27
  A 0.87 0.87 0.0 0 0 574.66 483.14
  L 574.66 485.24
  A 0.87 0.87 0.0 0 0 575.53 486.11
  Z"
/>
<path d="
  M 187.34 469.22
  A 1.09 1.09 0.0 0 1 188.42 468.12
  L 198.79 468.07
  A 10.24 10.12 89.7 0 1 208.96 478.25
  L 208.98 480.61
  A 10.24 10.12 89.7 0 1 198.91 490.91
  L 188.54 490.96
  A 1.09 1.09 0.0 0 1 187.44 489.88
  L 187.34 469.22
  Z"
/>
<rect x="-2.88" y="-11.24" transform="translate(398.72,479.57) rotate(0.3)" width="5.76" height="22.48" rx="1.44"/>
<path d="
  M 658.90 483.93
  A 0.80 0.80 0.0 0 0 658.06 482.86
  Q 653.39 483.41 649.27 481.51
  C 646.01 480.00 643.86 476.56 645.30 473.03
  C 646.77 469.40 649.32 468.30 653.31 468.21
  C 657.23 468.12 661.04 468.54 663.51 471.10
  Q 664.65 472.27 664.11 474.13
  A 1.42 1.42 0.0 0 1 662.23 475.06
  Q 656.74 472.95 651.55 473.97
  A 1.21 1.21 0.0 0 0 650.67 475.65
  C 651.11 476.67 652.07 477.19 653.26 477.28
  Q 656.30 477.52 660.02 478.09
  Q 663.89 478.68 664.76 482.32
  C 666.63 490.14 657.58 492.27 652.00 491.42
  C 649.46 491.03 647.43 490.67 645.88 488.93
  Q 643.76 486.55 645.96 484.96
  A 1.71 1.70 36.0 0 1 647.51 484.72
  Q 649.63 485.41 654.07 486.56
  C 656.40 487.17 658.15 485.91 658.90 483.93
  Z"
/>
<circle cx="370.34" cy="480.57" r="4.77"/>
</g>
<g fill="rgba(10,248,85,0.546)">
<path d="
  M 361.82 427.45
  A 0.30 0.30 0.0 0 0 362.11 427.67
  L 397.03 427.67
  A 1.94 1.93 90.0 0 1 398.96 429.61
  L 398.96 440.92
  A 1.67 1.67 0.0 0 1 397.29 442.59
  L 348.11 442.59
  A 1.31 1.31 0.0 0 1 346.80 441.30
  Q 346.70 432.22 346.81 425.01
  C 346.91 418.89 348.68 413.99 354.01 410.37
  Q 359.93 406.35 363.54 405.02
  Q 374.34 401.05 377.02 399.99
  C 379.69 398.93 385.30 395.72 384.34 391.85
  Q 383.30 387.66 379.93 385.20
  Q 378.76 384.35 374.75 384.37
  Q 360.23 384.44 349.22 384.56
  A 1.60 1.60 0.0 0 1 347.61 382.96
  L 347.61 370.36
  Q 347.61 369.62 348.35 369.60
  Q 351.47 369.50 377.10 369.23
  Q 389.05 369.10 395.61 378.56
  C 399.43 384.07 400.53 392.68 398.30 399.18
  Q 395.57 407.16 387.12 411.40
  Q 382.99 413.47 371.07 418.33
  C 368.22 419.49 360.91 424.12 361.82 427.45
  Z"
/>
<path d="
  M 635.7986 417.2233
  A 25.35 25.35 0.0 0 1 610.6262 442.7496
  L 596.4465 442.8486
  A 25.35 25.35 0.0 0 1 570.9202 417.6762
  L 570.7614 394.9367
  A 25.35 25.35 0.0 0 1 595.9338 369.4104
  L 610.1135 369.3114
  A 25.35 25.35 0.0 0 1 635.6398 394.4838
  L 635.7986 417.2233
  Z"
/>
<path d="
  M 738.00 413.95
  A 1.58 1.58 0.0 0 0 736.47 415.13
  C 735.18 420.04 735.69 426.76 742.52 427.09
  Q 756.25 427.75 776.97 427.38
  A 1.20 1.20 0.0 0 1 778.19 428.58
  L 778.19 441.86
  A 0.95 0.95 0.0 0 1 777.22 442.81
  Q 761.97 442.49 741.25 442.73
  C 729.83 442.86 721.03 433.49 720.94 422.28
  Q 720.76 400.96 721.49 387.52
  Q 721.63 384.86 723.39 381.39
  Q 729.33 369.67 743.31 369.57
  Q 743.41 369.57 776.79 369.39
  A 1.25 1.24 -0.0 0 1 778.04 370.63
  L 778.04 383.26
  A 1.21 1.21 0.0 0 1 776.87 384.47
  Q 764.74 384.95 747.76 384.88
  C 744.87 384.87 740.65 384.86 738.59 387.21
  C 736.44 389.66 733.47 396.20 737.42 398.28
  Q 738.45 398.83 741.67 398.90
  Q 753.53 399.19 763.98 399.27
  Q 766.05 399.28 766.21 402.06
  Q 766.56 408.34 765.42 412.83
  A 1.48 1.47 -83.0 0 1 763.99 413.95
  L 738.00 413.95
  Z"
/>
<path d="
  M 431.22 371.06
  A 1.55 1.55 0.0 0 1 432.77 369.51
  L 466.27 369.45
  A 25.25 24.89 -0.1 0 1 491.56 394.30
  L 491.60 417.50
  A 25.25 24.89 -0.1 0 1 466.39 442.43
  L 432.89 442.49
  A 1.55 1.55 0.0 0 1 431.34 440.94
  L 431.22 371.06
  Z"
/>
<path d="
  M 547.47 415.84
  Q 554.36 426.65 556.00 429.25
  Q 559.91 435.45 562.89 441.38
  A 0.80 0.80 0.0 0 1 562.11 442.54
  Q 555.06 441.97 547.87 442.83
  A 2.34 2.33 70.4 0 1 545.61 441.75
  Q 536.10 426.66 526.08 412.30
  C 524.39 409.88 527.29 403.05 530.44 403.13
  C 536.82 403.29 544.38 405.01 546.58 396.77
  C 547.79 392.25 545.89 385.05 540.00 384.95
  Q 526.95 384.74 519.19 384.48
  Q 518.26 384.45 518.26 385.38
  L 518.26 440.84
  A 1.48 1.48 0.0 0 1 516.78 442.32
  L 504.29 442.32
  A 1.13 1.12 90.0 0 1 503.17 441.19
  L 503.17 370.42
  A 0.83 0.83 0.0 0 1 503.99 369.59
  Q 517.33 369.40 534.00 369.46
  C 539.60 369.47 544.95 369.53 549.67 372.02
  C 560.52 377.76 562.94 389.43 560.68 400.98
  C 559.45 407.23 553.33 412.55 547.77 414.89
  A 0.65 0.65 0.0 0 0 547.47 415.84
  Z"
/>
<path d="
  M 662.55 398.77
  A 0.34 0.33 -73.1 0 0 662.03 399.05
  L 662.03 441.37
  A 1.07 1.07 0.0 0 1 660.96 442.44
  L 648.64 442.44
  Q 647.10 442.44 647.12 440.90
  L 647.74 371.50
  Q 647.76 369.59 649.67 369.59
  L 659.68 369.59
  A 4.50 4.49 -16.5 0 1 663.45 371.63
  L 692.68 416.27
  Q 693.08 416.88 693.77 415.81
  Q 693.96 415.52 693.92 414.50
  Q 693.24 397.71 693.74 370.15
  A 0.59 0.59 0.0 0 1 694.33 369.57
  L 707.55 369.57
  A 1.14 1.14 0.0 0 1 708.69 370.71
  L 708.69 441.43
  A 1.14 1.14 0.0 0 1 707.55 442.57
  L 694.21 442.57
  A 2.55 2.54 74.7 0 1 692.02 441.32
  Q 689.72 437.41 688.23 435.18
  Q 668.46 405.69 666.58 402.87
  Q 664.91 400.37 662.55 398.77
  Z"
/>
</g>
<g fill="#000000">
<path d="
  M 281.88 65.20
  Q 277.49 61.41 271.96 61.44
  C 265.11 61.48 261.12 62.36 257.02 67.62
  C 253.36 72.31 253.74 81.06 254.39 87.47
  A 1.63 1.62 79.6 0 1 253.20 89.21
  Q 252.15 89.50 250.18 89.36
  Q 227.87 87.79 207.44 82.40
  Q 202.41 81.07 193.00 77.42
  C 189.13 75.92 185.31 73.96 182.85 70.61
  C 180.16 66.94 186.03 63.44 188.66 61.89
  C 197.92 56.43 207.78 53.37 219.33 50.92
  Q 239.31 46.69 260.27 45.85
  C 285.58 44.83 310.26 46.71 334.40 53.00
  Q 346.62 56.18 356.15 62.22
  Q 359.33 64.23 361.48 66.78
  A 2.55 2.53 -53.4 0 1 361.86 69.43
  C 359.05 75.90 345.09 80.11 338.77 81.75
  C 322.50 85.97 309.36 87.56 291.03 89.44
  Q 289.65 89.58 288.55 89.33
  Q 288.01 89.21 287.79 88.70
  C 286.24 85.01 287.61 81.39 287.28 78.01
  C 286.73 72.47 286.19 68.93 281.88 65.20
  Z"
/>
<path d="
  M 572.83 63.45
  C 567.42 67.00 565.48 71.35 565.52 78.16
  Q 565.56 84.49 565.64 87.02
  C 565.72 89.42 563.66 89.40 561.74 89.24
  C 540.74 87.39 520.82 84.79 500.94 77.20
  Q 494.85 74.87 490.89 69.99
  A 1.96 1.94 42.3 0 1 490.77 67.68
  Q 492.84 64.54 496.31 62.52
  C 510.10 54.46 525.71 51.39 541.60 48.65
  Q 548.85 47.40 555.50 46.81
  Q 577.24 44.90 600.28 46.24
  C 616.05 47.15 630.91 50.05 645.63 54.13
  Q 651.19 55.67 656.69 58.10
  C 662.79 60.80 666.63 62.70 669.51 68.29
  Q 670.19 69.60 668.83 70.86
  C 662.67 76.59 655.15 79.41 646.97 81.69
  Q 625.02 87.81 602.26 89.27
  Q 601.83 89.30 600.61 89.50
  Q 599.57 89.67 598.95 89.48
  A 1.76 1.76 0.0 0 1 597.72 87.84
  Q 597.64 84.10 597.70 76.76
  C 597.78 67.18 590.59 60.79 581.03 61.44
  C 577.82 61.66 575.34 61.81 572.83 63.45
  Z"
/>
<rect x="396.70" y="141.45" width="57.78" height="8.46" rx="2.34"/>
<circle cx="426.13" cy="259.84" r="12.56"/>
<rect x="-17.01" y="-21.74" transform="translate(603.14,405.93) rotate(-0.1)" width="34.02" height="43.48" rx="12.04"/>
<path d="
  M 446.36 386.02
  A 1.17 1.17 0.0 0 1 447.53 384.85
  L 466.34 384.78
  A 9.96 9.63 -0.2 0 1 476.33 394.38
  L 476.41 417.48
  A 9.96 9.63 -0.2 0 1 466.48 427.14
  L 447.67 427.21
  A 1.17 1.17 0.0 0 1 446.50 426.04
  L 446.36 386.02
  Z"
/>
<ellipse cx="0.00" cy="0.00" transform="translate(251.67,479.56) rotate(83.1)" rx="6.39" ry="5.90"/>
<path d="
  M 193.21 474.93
  A 1.67 1.67 0.0 0 1 194.90 473.28
  L 198.02 473.31
  A 5.41 5.29 -89.4 0 1 203.25 478.77
  L 203.23 480.47
  A 5.41 5.29 -89.4 0 1 197.88 485.83
  L 194.76 485.79
  A 1.67 1.67 0.0 0 1 193.11 484.11
  L 193.21 474.93
  Z"
/>
<path d="
  M 220.38 474.65
  A 0.89 0.89 0.0 0 1 221.22 473.71
  L 226.54 473.41
  A 3.16 2.07 -3.3 0 1 229.81 475.29
  L 229.91 477.03
  A 3.16 2.07 -3.3 0 1 226.88 479.28
  L 221.56 479.58
  A 0.89 0.89 0.0 0 1 220.62 478.75
  L 220.38 474.65
  Z"
/>
</g>
</svg>
