<svg width="14" height="14" viewBox="0 0 12 14" fill="#ffffff" xmlns="http://www.w3.org/2000/svg">
<path fill-rule="evenodd" clip-rule="evenodd" d="M5.60931 13.864C4.27787 12.7422 0 8.90498 0 5.91054C0 2.36421 2.4 0 6 0C9.6 0 12 2.95527 12 5.91054C12 8.41796 7.68071 12.6273 6.37161 13.8455C6.15808 14.0442 5.83254 14.0521 5.60931 13.864ZM8 5.12247C8 6.21057 7.10457 7.09265 6 7.09265C4.89543 7.09265 4 6.21057 4 5.12247C4 4.03437 4.89543 3.15229 6 3.15229C7.10457 3.15229 8 4.03437 8 5.12247Z"/></svg>
