<svg width="148" height="36" viewBox="0 0 148 36" fill="none" xmlns="http://www.w3.org/2000/svg">
<path d="M35.016 23.336H40.536V26H31.656V9.248H35.016V23.336ZM54.8636 12.704V26H51.4796V24.32C51.0476 24.896 50.4796 25.352 49.7756 25.688C49.0876 26.008 48.3356 26.168 47.5196 26.168C46.4796 26.168 45.5596 25.952 44.7596 25.52C43.9596 25.072 43.3276 24.424 42.8636 23.576C42.4156 22.712 42.1916 21.688 42.1916 20.504V12.704H45.5516V20.024C45.5516 21.08 45.8156 21.896 46.3436 22.472C46.8716 23.032 47.5916 23.312 48.5036 23.312C49.4316 23.312 50.1596 23.032 50.6876 22.472C51.2156 21.896 51.4796 21.08 51.4796 20.024V12.704H54.8636ZM74.3308 12.512C75.9628 12.512 77.2748 13.016 78.2668 14.024C79.2748 15.016 79.7788 16.408 79.7788 18.2V26H76.4188V18.656C76.4188 17.616 76.1548 16.824 75.6268 16.28C75.0988 15.72 74.3788 15.44 73.4668 15.44C72.5548 15.44 71.8268 15.72 71.2828 16.28C70.7548 16.824 70.4908 17.616 70.4908 18.656V26H67.1308V18.656C67.1308 17.616 66.8668 16.824 66.3388 16.28C65.8108 15.72 65.0908 15.44 64.1788 15.44C63.2508 15.44 62.5148 15.72 61.9708 16.28C61.4428 16.824 61.1788 17.616 61.1788 18.656V26H57.8188V12.704H61.1788V14.312C61.6108 13.752 62.1628 13.312 62.8348 12.992C63.5228 12.672 64.2748 12.512 65.0908 12.512C66.1308 12.512 67.0588 12.736 67.8748 13.184C68.6908 13.616 69.3228 14.24 69.7708 15.056C70.2028 14.288 70.8268 13.672 71.6428 13.208C72.4748 12.744 73.3708 12.512 74.3308 12.512ZM84.3112 11.12C83.7192 11.12 83.2232 10.936 82.8232 10.568C82.4392 10.184 82.2472 9.712 82.2472 9.152C82.2472 8.592 82.4392 8.128 82.8232 7.76C83.2232 7.376 83.7192 7.184 84.3112 7.184C84.9032 7.184 85.3912 7.376 85.7752 7.76C86.1752 8.128 86.3752 8.592 86.3752 9.152C86.3752 9.712 86.1752 10.184 85.7752 10.568C85.3912 10.936 84.9032 11.12 84.3112 11.12ZM85.9672 12.704V26H82.6072V12.704H85.9672ZM94.2789 26.168C93.1749 26.168 92.1989 25.976 91.3509 25.592C90.5189 25.208 89.8629 24.672 89.3829 23.984C88.9029 23.296 88.6469 22.528 88.6149 21.68H90.3909C90.4709 22.496 90.8309 23.216 91.4709 23.84C92.1109 24.448 93.0469 24.752 94.2789 24.752C95.4149 24.752 96.3109 24.464 96.9669 23.888C97.6389 23.296 97.9749 22.552 97.9749 21.656C97.9749 20.936 97.7909 20.36 97.4229 19.928C97.0549 19.48 96.5989 19.152 96.0549 18.944C95.5109 18.72 94.7589 18.48 93.7989 18.224C92.6789 17.92 91.7909 17.624 91.1349 17.336C90.4789 17.048 89.9189 16.6 89.4549 15.992C88.9909 15.384 88.7589 14.56 88.7589 13.52C88.7589 12.656 88.9829 11.888 89.4309 11.216C89.8789 10.528 90.5109 9.992 91.3269 9.608C92.1429 9.224 93.0789 9.032 94.1349 9.032C95.6869 9.032 96.9349 9.416 97.8789 10.184C98.8389 10.936 99.3909 11.912 99.5349 13.112H97.7109C97.5989 12.424 97.2229 11.816 96.5829 11.288C95.9429 10.744 95.0789 10.472 93.9909 10.472C92.9829 10.472 92.1429 10.744 91.4709 11.288C90.7989 11.816 90.4629 12.544 90.4629 13.472C90.4629 14.176 90.6469 14.744 91.0149 15.176C91.3829 15.608 91.8389 15.936 92.3829 16.16C92.9429 16.384 93.6949 16.624 94.6389 16.88C95.7269 17.184 96.6069 17.488 97.2789 17.792C97.9509 18.08 98.5189 18.528 98.9829 19.136C99.4469 19.744 99.6789 20.56 99.6789 21.584C99.6789 22.368 99.4709 23.112 99.0549 23.816C98.6389 24.52 98.0229 25.088 97.2069 25.52C96.3909 25.952 95.4149 26.168 94.2789 26.168ZM104.749 14.312V22.448C104.749 23.248 104.901 23.8 105.205 24.104C105.509 24.408 106.045 24.56 106.813 24.56H108.349V26H106.549C105.365 26 104.485 25.728 103.909 25.184C103.333 24.624 103.045 23.712 103.045 22.448V14.312H101.221V12.896H103.045V9.608H104.749V12.896H108.349V14.312H104.749ZM116.496 26.192C115.264 26.192 114.152 25.92 113.16 25.376C112.184 24.816 111.408 24.032 110.832 23.024C110.272 22 109.992 20.808 109.992 19.448C109.992 18.088 110.28 16.904 110.856 15.896C111.432 14.872 112.216 14.088 113.208 13.544C114.2 12.984 115.312 12.704 116.544 12.704C117.776 12.704 118.888 12.984 119.88 13.544C120.888 14.088 121.672 14.872 122.232 15.896C122.808 16.904 123.096 18.088 123.096 19.448C123.096 20.792 122.808 21.976 122.232 23C121.656 24.024 120.864 24.816 119.856 25.376C118.848 25.92 117.728 26.192 116.496 26.192ZM116.496 24.728C117.36 24.728 118.16 24.536 118.896 24.152C119.632 23.752 120.224 23.16 120.672 22.376C121.136 21.576 121.368 20.6 121.368 19.448C121.368 18.296 121.144 17.328 120.696 16.544C120.248 15.744 119.656 15.152 118.92 14.768C118.184 14.368 117.384 14.168 116.52 14.168C115.656 14.168 114.856 14.368 114.12 14.768C113.384 15.152 112.792 15.744 112.344 16.544C111.912 17.328 111.696 18.296 111.696 19.448C111.696 20.6 111.912 21.576 112.344 22.376C112.792 23.16 113.376 23.752 114.096 24.152C114.832 24.536 115.632 24.728 116.496 24.728ZM127.478 15.224C127.846 14.408 128.406 13.776 129.158 13.328C129.926 12.88 130.862 12.656 131.966 12.656V14.408H131.51C130.294 14.408 129.318 14.736 128.582 15.392C127.846 16.048 127.478 17.144 127.478 18.68V26H125.798V12.896H127.478V15.224ZM145.99 18.776C145.99 19.352 145.974 19.792 145.942 20.096H135.07C135.118 21.088 135.358 21.936 135.79 22.64C136.222 23.344 136.79 23.88 137.494 24.248C138.198 24.6 138.966 24.776 139.798 24.776C140.886 24.776 141.798 24.512 142.534 23.984C143.286 23.456 143.782 22.744 144.022 21.848H145.798C145.478 23.128 144.79 24.176 143.734 24.992C142.694 25.792 141.382 26.192 139.798 26.192C138.566 26.192 137.462 25.92 136.486 25.376C135.51 24.816 134.742 24.032 134.182 23.024C133.638 22 133.366 20.808 133.366 19.448C133.366 18.088 133.638 16.896 134.182 15.872C134.726 14.848 135.486 14.064 136.462 13.52C137.438 12.976 138.55 12.704 139.798 12.704C141.046 12.704 142.134 12.976 143.062 13.52C144.006 14.064 144.726 14.8 145.222 15.728C145.734 16.64 145.99 17.656 145.99 18.776ZM144.286 18.728C144.302 17.752 144.102 16.92 143.686 16.232C143.286 15.544 142.734 15.024 142.03 14.672C141.326 14.32 140.558 14.144 139.726 14.144C138.478 14.144 137.414 14.544 136.534 15.344C135.654 16.144 135.166 17.272 135.07 18.728H144.286Z" fill="#0B0B0B"/>
<path d="M10 8L12.4749 15.5251L20 18L12.4749 20.4749L10 28L7.52513 20.4749L0 18L7.52513 15.5251L10 8Z" fill="#2F80ED"/>
</svg>
