<?xml version="1.0" encoding="UTF-8" standalone="no"?>
<!DOCTYPE svg PUBLIC "-//W3C//DTD SVG 1.1//EN" "http://www.w3.org/Graphics/SVG/1.1/DTD/svg11.dtd">
<svg xmlns="http://www.w3.org/2000/svg" version="1.1" viewBox="0.00 0.00 995.00 296.00">
<g stroke-width="2.00" fill="none" stroke-linecap="butt">
<path stroke="#737373" vector-effect="non-scaling-stroke" d="
  M 281.19 150.53
  C 287.89 161.23 291.75 172.34 293.67 184.58
  Q 293.84 185.66 294.23 184.64
  Q 297.17 176.99 298.21 169.25
  C 301.33 146.14 296.92 122.74 284.19 103.28
  C 271.76 84.28 251.47 68.59 229.48 61.58
  A 0.64 0.63 4.5 0 1 229.04 61.07
  C 225.71 41.42 209.13 25.38 191.40 17.79
  Q 190.68 17.49 190.47 18.24
  L 179.05 59.01
  Q 178.97 59.32 178.65 59.36
  L 167.01 61.01
  A 0.41 0.41 0.0 0 1 166.56 60.48
  L 173.67 37.48
  Q 173.89 36.77 173.29 36.34
  Q 159.68 26.53 143.76 21.41
  A 0.61 0.61 0.0 0 0 142.96 22.00
  L 144.13 66.47
  Q 144.15 66.95 143.71 67.14
  Q 125.27 75.35 118.30 79.55
  Q 112.06 83.32 109.04 91.65
  C 107.15 96.86 108.40 103.67 106.10 109.16
  Q 104.51 112.95 102.85 116.97
  Q 102.68 117.39 102.16 117.57
  C 100.04 118.32 96.11 119.47 93.31 120.81
  Q 66.67 133.53 40.73 148.60
  A 0.26 0.25 -39.7 0 0 40.69 149.01
  L 68.01 172.53
  A 0.45 0.45 0.0 0 0 68.45 172.60
  Q 119.80 151.88 131.68 147.00
  Q 134.60 145.80 136.76 145.80
  Q 147.09 145.81 157.58 146.74
  A 0.44 0.44 0.0 0 1 157.94 147.37
  L 150.87 162.74
  A 0.61 0.61 0.0 0 1 150.11 163.06
  L 131.68 156.51
  A 0.18 0.18 0.0 0 0 131.45 156.62
  L 126.32 171.06
  Q 126.15 171.54 125.67 171.37
  L 107.91 165.06
  Q 107.29 164.84 107.11 165.47
  L 102.39 182.34
  Q 102.26 182.79 101.83 182.62
  L 86.79 176.44
  A 0.48 0.47 -71.3 0 0 86.15 176.76
  C 81.41 195.19 100.86 207.72 115.74 211.89
  Q 116.20 212.02 116.06 211.56
  L 111.71 197.24
  Q 111.46 196.42 112.27 196.12
  Q 115.09 195.05 123.18 192.14
  C 132.68 188.72 143.18 190.09 149.84 198.16
  C 158.01 208.06 156.20 226.19 151.95 237.69
  C 147.19 250.60 139.92 262.94 132.12 274.03
  Q 131.62 274.74 132.47 274.56
  C 176.58 265.40 215.25 234.95 225.29 189.99
  C 229.21 172.41 227.59 155.90 222.01 138.73
  Q 221.56 137.36 222.40 138.54
  C 228.89 147.65 233.08 157.67 235.10 168.81
  C 240.36 197.86 233.90 227.68 213.96 249.91
  Q 213.16 250.81 214.27 250.33
  C 238.08 240.16 258.91 222.62 270.62 199.73
  Q 282.48 176.52 280.93 150.61
  Q 280.90 150.06 281.19 150.53"
/>
<path stroke="#737373" vector-effect="non-scaling-stroke" d="
  M 365.06 162.19
  Q 371.73 162.37 386.37 162.22
  Q 392.13 162.16 394.86 160.44
  Q 399.93 157.26 399.89 150.51
  Q 399.77 128.15 399.84 107.13
  Q 399.86 102.44 399.30 100.99
  C 397.30 95.78 391.91 93.47 386.26 93.51
  Q 373.07 93.60 346.81 93.58
  A 2.13 2.12 90.0 0 0 344.69 95.71
  L 344.69 201.28
  A 2.10 2.09 -90.0 0 0 346.78 203.38
  L 362.07 203.38
  Q 364.54 203.38 364.54 200.90
  L 364.54 162.70
  A 0.51 0.51 0.0 0 1 365.06 162.19"
/>
<path stroke="#737373" vector-effect="non-scaling-stroke" d="
  M 431.76 139.45
  L 431.76 112.95
  A 1.07 1.06 -0.0 0 1 432.83 111.89
  L 444.23 111.89
  Q 445.32 111.89 445.34 112.97
  Q 445.53 120.61 445.37 127.69
  C 445.28 131.63 447.50 131.49 450.77 131.56
  Q 455.18 131.65 460.50 131.48
  C 463.75 131.37 465.63 131.10 465.58 127.50
  Q 465.51 122.67 465.63 107.04
  Q 465.66 102.50 465.04 100.77
  C 463.39 96.15 458.22 93.60 453.48 93.60
  Q 440.45 93.61 427.43 93.58
  Q 421.34 93.56 419.30 94.37
  Q 415.04 96.05 412.71 100.12
  Q 411.53 102.17 411.58 106.48
  Q 411.78 123.30 411.64 145.49
  Q 411.62 149.82 412.89 151.91
  C 416.13 157.19 419.83 157.98 426.56 157.94
  Q 433.67 157.91 444.04 157.85
  A 1.39 1.39 0.0 0 1 445.43 159.24
  L 445.43 184.01
  A 1.27 1.27 0.0 0 1 444.16 185.28
  L 432.99 185.28
  A 1.18 1.18 0.0 0 1 431.81 184.10
  L 431.81 171.21
  Q 431.81 167.87 428.47 167.87
  L 412.89 167.87
  A 1.59 1.58 90.0 0 0 411.31 169.46
  Q 411.30 182.13 411.17 191.26
  Q 411.08 197.78 416.50 201.26
  Q 419.82 203.40 422.37 203.41
  Q 437.08 203.48 452.25 203.45
  C 459.33 203.44 465.59 200.63 465.66 192.53
  Q 465.67 191.67 465.77 151.28
  C 465.79 144.99 460.58 140.51 454.47 140.60
  Q 443.37 140.77 432.88 140.59
  Q 431.76 140.57 431.76 139.45"
/>
<path stroke="#737373" vector-effect="non-scaling-stroke" d="
  M 498.09 139.81
  L 498.09 112.81
  Q 498.09 111.75 499.15 111.75
  L 526.03 111.75
  Q 528.82 111.75 528.82 108.96
  L 528.82 96.01
  Q 528.82 93.63 526.45 93.63
  L 480.01 93.63
  A 1.88 1.88 0.0 0 0 478.13 95.51
  L 478.13 201.03
  A 2.39 2.38 0.0 0 0 480.52 203.41
  L 526.40 203.41
  A 2.57 2.57 0.0 0 0 528.97 200.84
  L 528.97 187.92
  A 2.41 2.41 0.0 0 0 526.56 185.51
  L 498.98 185.51
  Q 497.94 185.51 497.94 184.48
  L 497.94 158.56
  Q 497.94 158.05 498.45 158.05
  L 523.08 158.05
  A 2.37 2.37 0.0 0 0 525.45 155.68
  L 525.45 142.91
  Q 525.45 140.53 523.07 140.53
  L 498.81 140.53
  Q 498.09 140.53 498.09 139.81"
/>
<path stroke="#737373" vector-effect="non-scaling-stroke" d="
  M 576.69 158.85
  L 576.69 183.90
  A 1.38 1.37 -0.0 0 1 575.31 185.27
  L 561.54 185.27
  A 1.06 1.06 0.0 0 1 560.48 184.21
  L 560.48 113.07
  Q 560.48 111.79 561.76 111.79
  L 575.32 111.79
  A 1.25 1.24 0.0 0 1 576.57 113.03
  L 576.57 128.34
  A 2.53 2.53 0.0 0 0 579.10 130.87
  L 592.65 130.87
  A 3.86 3.85 -0.2 0 0 596.51 126.99
  Q 596.40 110.54 596.48 106.46
  C 596.58 101.20 594.90 97.31 590.46 95.03
  Q 587.65 93.58 581.32 93.59
  Q 554.12 93.63 553.27 93.64
  Q 545.36 93.74 541.70 100.01
  Q 540.57 101.97 540.58 106.13
  Q 540.71 175.25 540.67 190.21
  Q 540.66 195.07 541.84 197.11
  Q 543.78 200.46 547.24 202.23
  Q 549.60 203.45 557.01 203.46
  Q 567.08 203.48 584.24 203.47
  Q 592.24 203.47 595.53 197.46
  Q 597.03 194.72 597.05 188.74
  Q 597.18 159.70 597.15 148.15
  C 597.15 144.65 596.71 141.54 592.72 141.34
  Q 582.08 140.78 571.82 141.33
  Q 569.51 141.45 569.51 143.76
  L 569.51 156.47
  A 1.80 1.80 0.0 0 0 571.31 158.27
  L 576.14 158.27
  Q 576.69 158.27 576.69 158.85"
/>
<path stroke="#737373" vector-effect="non-scaling-stroke" d="
  M 629.26 184.88
  L 629.26 96.05
  A 2.45 2.44 -90.0 0 0 626.82 93.60
  L 611.54 93.60
  Q 609.66 93.60 609.66 95.49
  L 609.66 200.76
  A 2.66 2.65 90.0 0 0 612.31 203.42
  L 650.07 203.42
  A 2.30 2.30 0.0 0 0 652.37 201.12
  L 652.37 187.68
  A 2.14 2.14 0.0 0 0 650.23 185.54
  L 629.92 185.54
  Q 629.26 185.54 629.26 184.88"
/>
<path stroke="#737373" vector-effect="non-scaling-stroke" d="
  M 752.70 183.92
  Q 751.91 183.11 751.72 181.40
  Q 747.36 140.63 741.84 95.58
  A 2.26 2.25 -3.4 0 0 739.60 93.60
  L 722.89 93.60
  A 1.79 1.78 -4.0 0 0 721.12 95.63
  L 735.97 200.58
  A 3.24 3.24 0.0 0 0 739.18 203.37
  L 765.70 203.37
  A 3.34 3.34 0.0 0 0 769.00 200.52
  L 784.49 96.10
  A 2.15 2.15 0.0 0 0 782.36 93.63
  L 765.67 93.63
  A 1.81 1.81 0.0 0 0 763.87 95.24
  L 753.73 183.56
  A 0.61 0.60 -64.1 0 1 752.70 183.92"
/>
<path stroke="#737373" vector-effect="non-scaling-stroke" d="
  M 813.43 95.64
  A 2.05 2.05 0.0 0 0 811.38 93.59
  L 795.62 93.59
  A 2.05 2.05 0.0 0 0 793.57 95.64
  L 793.57 201.32
  A 2.05 2.05 0.0 0 0 795.62 203.37
  L 811.38 203.37
  A 2.05 2.05 0.0 0 0 813.43 201.32
  L 813.43 95.64"
/>
<path stroke="#737373" vector-effect="non-scaling-stroke" d="
  M 860.84 185.36
  L 848.65 185.36
  Q 846.89 185.36 846.89 183.60
  L 846.89 95.61
  A 2.03 2.03 0.0 0 0 844.86 93.58
  L 829.13 93.58
  Q 826.75 93.58 826.75 95.96
  Q 826.92 143.73 826.95 190.25
  Q 826.96 198.83 833.32 201.92
  Q 836.43 203.43 844.42 203.44
  Q 866.40 203.46 868.50 203.50
  C 873.57 203.61 878.74 201.72 880.99 197.07
  Q 881.90 195.18 881.93 189.75
  Q 882.22 130.12 882.11 95.88
  A 2.23 2.23 0.0 0 0 879.88 93.66
  L 863.58 93.66
  A 1.76 1.76 0.0 0 0 861.82 95.42
  L 861.82 184.39
  A 0.98 0.97 -0.0 0 1 860.84 185.36"
/>
<path stroke="#737373" vector-effect="non-scaling-stroke" d="
  M 914.91 139.30
  L 914.91 112.85
  A 1.10 1.10 0.0 0 1 916.01 111.75
  L 927.43 111.75
  A 0.96 0.96 0.0 0 1 928.39 112.71
  L 928.39 128.47
  A 2.92 2.92 0.0 0 0 931.31 131.39
  L 945.83 131.39
  A 2.81 2.81 0.0 0 0 948.64 128.56
  Q 948.56 116.20 948.58 108.35
  C 948.59 102.29 947.98 98.66 942.96 95.51
  Q 939.88 93.57 934.51 93.56
  Q 927.48 93.53 909.26 93.62
  Q 904.18 93.65 901.87 94.63
  C 898.14 96.20 894.60 99.96 894.62 104.32
  Q 894.72 128.52 894.59 144.67
  C 894.55 150.27 895.94 153.49 900.45 156.32
  Q 902.73 157.75 908.71 157.80
  Q 912.47 157.83 926.94 157.66
  Q 928.81 157.64 928.81 159.51
  L 928.81 183.38
  A 1.91 1.90 90.0 0 1 926.91 185.29
  L 916.57 185.29
  A 1.19 1.18 -90.0 0 1 915.39 184.10
  L 915.39 170.98
  A 3.39 3.39 0.0 0 0 912.00 167.59
  L 897.23 167.59
  Q 894.62 167.59 894.68 170.20
  Q 894.91 180.29 894.72 189.21
  Q 894.63 193.41 895.50 195.83
  C 897.35 200.94 902.52 203.43 908.02 203.45
  Q 916.02 203.48 935.74 203.46
  Q 941.87 203.46 945.81 199.33
  Q 948.69 196.31 948.68 193.23
  Q 948.65 174.52 948.74 155.12
  C 948.76 149.33 948.27 144.87 943.24 142.10
  Q 940.49 140.59 933.53 140.56
  Q 929.69 140.54 916.16 140.55
  A 1.25 1.25 0.0 0 1 914.91 139.30"
/>
<path stroke="#737373" vector-effect="non-scaling-stroke" d="
  M 690.62 181.90
  Q 694.98 181.91 699.24 181.97
  A 0.68 0.68 0.0 0 1 699.91 182.57
  L 702.13 201.36
  A 2.43 2.43 0.0 0 0 704.54 203.51
  L 720.64 203.51
  A 1.88 1.88 0.0 0 0 722.50 201.37
  L 707.60 96.08
  A 2.75 2.74 86.1 0 0 704.91 93.72
  Q 698.96 93.68 690.75 93.67
  Q 682.54 93.65 676.59 93.68
  A 2.75 2.74 -86.0 0 0 673.89 96.03
  L 658.68 201.28
  A 1.88 1.88 0.0 0 0 660.54 203.42
  L 676.64 203.47
  A 2.43 2.43 0.0 0 0 679.05 201.33
  L 681.33 182.54
  A 0.68 0.68 0.0 0 1 682.00 181.95
  Q 686.26 181.90 690.62 181.90"
/>
<path stroke="#737373" vector-effect="non-scaling-stroke" d="
  M 200.55 55.94
  Q 199.99 54.30 199.57 55.97
  L 192.41 84.10
  Q 192.19 84.96 193.02 85.25
  L 209.95 91.27
  Q 210.30 91.40 210.22 91.03
  Q 206.12 72.47 200.55 55.94"
/>
<path stroke="#737373" vector-effect="non-scaling-stroke" d="
  M 149.08 101.82
  Q 150.08 100.45 148.41 100.70
  Q 138.55 102.14 126.57 105.63
  Q 126.08 105.78 125.89 106.10
  L 123.64 109.96
  Q 123.39 110.39 123.87 110.52
  L 138.62 114.65
  A 1.24 1.24 0.0 0 0 139.95 114.20
  L 149.08 101.82"
/>
<path stroke="#737373" vector-effect="non-scaling-stroke" d="
  M 379.3931 112.5270
  A 0.73 0.73 0.0 0 0 378.6618 111.7983
  L 365.2019 111.8218
  A 0.73 0.73 0.0 0 0 364.4731 112.5530
  L 364.5269 143.3530
  A 0.73 0.73 0.0 0 0 365.2582 144.0817
  L 378.7181 144.0582
  A 0.73 0.73 0.0 0 0 379.4469 143.3270
  L 379.3931 112.5270"
/>
<path stroke="#737373" vector-effect="non-scaling-stroke" d="
  M 690.37 165.59
  Q 693.86 165.59 697.27 165.44
  A 0.36 0.35 -5.0 0 0 697.61 165.04
  L 691.41 112.63
  Q 691.34 112.08 690.87 111.80
  Q 690.65 111.68 690.39 111.68
  Q 690.12 111.68 689.91 111.80
  Q 689.44 112.08 689.37 112.63
  L 683.12 165.03
  A 0.36 0.35 5.0 0 0 683.46 165.43
  Q 686.88 165.58 690.37 165.59"
/>
</g>
<g fill="#e6e6e6">
<path d="
  M 995.00 0.00
  L 995.00 296.00
  L 0.00 296.00
  L 0.00 0.00
  L 995.00 0.00
  Z
  M 281.19 150.53
  C 287.89 161.23 291.75 172.34 293.67 184.58
  Q 293.84 185.66 294.23 184.64
  Q 297.17 176.99 298.21 169.25
  C 301.33 146.14 296.92 122.74 284.19 103.28
  C 271.76 84.28 251.47 68.59 229.48 61.58
  A 0.64 0.63 4.5 0 1 229.04 61.07
  C 225.71 41.42 209.13 25.38 191.40 17.79
  Q 190.68 17.49 190.47 18.24
  L 179.05 59.01
  Q 178.97 59.32 178.65 59.36
  L 167.01 61.01
  A 0.41 0.41 0.0 0 1 166.56 60.48
  L 173.67 37.48
  Q 173.89 36.77 173.29 36.34
  Q 159.68 26.53 143.76 21.41
  A 0.61 0.61 0.0 0 0 142.96 22.00
  L 144.13 66.47
  Q 144.15 66.95 143.71 67.14
  Q 125.27 75.35 118.30 79.55
  Q 112.06 83.32 109.04 91.65
  C 107.15 96.86 108.40 103.67 106.10 109.16
  Q 104.51 112.95 102.85 116.97
  Q 102.68 117.39 102.16 117.57
  C 100.04 118.32 96.11 119.47 93.31 120.81
  Q 66.67 133.53 40.73 148.60
  A 0.26 0.25 -39.7 0 0 40.69 149.01
  L 68.01 172.53
  A 0.45 0.45 0.0 0 0 68.45 172.60
  Q 119.80 151.88 131.68 147.00
  Q 134.60 145.80 136.76 145.80
  Q 147.09 145.81 157.58 146.74
  A 0.44 0.44 0.0 0 1 157.94 147.37
  L 150.87 162.74
  A 0.61 0.61 0.0 0 1 150.11 163.06
  L 131.68 156.51
  A 0.18 0.18 0.0 0 0 131.45 156.62
  L 126.32 171.06
  Q 126.15 171.54 125.67 171.37
  L 107.91 165.06
  Q 107.29 164.84 107.11 165.47
  L 102.39 182.34
  Q 102.26 182.79 101.83 182.62
  L 86.79 176.44
  A 0.48 0.47 -71.3 0 0 86.15 176.76
  C 81.41 195.19 100.86 207.72 115.74 211.89
  Q 116.20 212.02 116.06 211.56
  L 111.71 197.24
  Q 111.46 196.42 112.27 196.12
  Q 115.09 195.05 123.18 192.14
  C 132.68 188.72 143.18 190.09 149.84 198.16
  C 158.01 208.06 156.20 226.19 151.95 237.69
  C 147.19 250.60 139.92 262.94 132.12 274.03
  Q 131.62 274.74 132.47 274.56
  C 176.58 265.40 215.25 234.95 225.29 189.99
  C 229.21 172.41 227.59 155.90 222.01 138.73
  Q 221.56 137.36 222.40 138.54
  C 228.89 147.65 233.08 157.67 235.10 168.81
  C 240.36 197.86 233.90 227.68 213.96 249.91
  Q 213.16 250.81 214.27 250.33
  C 238.08 240.16 258.91 222.62 270.62 199.73
  Q 282.48 176.52 280.93 150.61
  Q 280.90 150.06 281.19 150.53
  Z
  M 365.06 162.19
  Q 371.73 162.37 386.37 162.22
  Q 392.13 162.16 394.86 160.44
  Q 399.93 157.26 399.89 150.51
  Q 399.77 128.15 399.84 107.13
  Q 399.86 102.44 399.30 100.99
  C 397.30 95.78 391.91 93.47 386.26 93.51
  Q 373.07 93.60 346.81 93.58
  A 2.13 2.12 90.0 0 0 344.69 95.71
  L 344.69 201.28
  A 2.10 2.09 -90.0 0 0 346.78 203.38
  L 362.07 203.38
  Q 364.54 203.38 364.54 200.90
  L 364.54 162.70
  A 0.51 0.51 0.0 0 1 365.06 162.19
  Z
  M 431.76 139.45
  L 431.76 112.95
  A 1.07 1.06 -0.0 0 1 432.83 111.89
  L 444.23 111.89
  Q 445.32 111.89 445.34 112.97
  Q 445.53 120.61 445.37 127.69
  C 445.28 131.63 447.50 131.49 450.77 131.56
  Q 455.18 131.65 460.50 131.48
  C 463.75 131.37 465.63 131.10 465.58 127.50
  Q 465.51 122.67 465.63 107.04
  Q 465.66 102.50 465.04 100.77
  C 463.39 96.15 458.22 93.60 453.48 93.60
  Q 440.45 93.61 427.43 93.58
  Q 421.34 93.56 419.30 94.37
  Q 415.04 96.05 412.71 100.12
  Q 411.53 102.17 411.58 106.48
  Q 411.78 123.30 411.64 145.49
  Q 411.62 149.82 412.89 151.91
  C 416.13 157.19 419.83 157.98 426.56 157.94
  Q 433.67 157.91 444.04 157.85
  A 1.39 1.39 0.0 0 1 445.43 159.24
  L 445.43 184.01
  A 1.27 1.27 0.0 0 1 444.16 185.28
  L 432.99 185.28
  A 1.18 1.18 0.0 0 1 431.81 184.10
  L 431.81 171.21
  Q 431.81 167.87 428.47 167.87
  L 412.89 167.87
  A 1.59 1.58 90.0 0 0 411.31 169.46
  Q 411.30 182.13 411.17 191.26
  Q 411.08 197.78 416.50 201.26
  Q 419.82 203.40 422.37 203.41
  Q 437.08 203.48 452.25 203.45
  C 459.33 203.44 465.59 200.63 465.66 192.53
  Q 465.67 191.67 465.77 151.28
  C 465.79 144.99 460.58 140.51 454.47 140.60
  Q 443.37 140.77 432.88 140.59
  Q 431.76 140.57 431.76 139.45
  Z
  M 498.09 139.81
  L 498.09 112.81
  Q 498.09 111.75 499.15 111.75
  L 526.03 111.75
  Q 528.82 111.75 528.82 108.96
  L 528.82 96.01
  Q 528.82 93.63 526.45 93.63
  L 480.01 93.63
  A 1.88 1.88 0.0 0 0 478.13 95.51
  L 478.13 201.03
  A 2.39 2.38 0.0 0 0 480.52 203.41
  L 526.40 203.41
  A 2.57 2.57 0.0 0 0 528.97 200.84
  L 528.97 187.92
  A 2.41 2.41 0.0 0 0 526.56 185.51
  L 498.98 185.51
  Q 497.94 185.51 497.94 184.48
  L 497.94 158.56
  Q 497.94 158.05 498.45 158.05
  L 523.08 158.05
  A 2.37 2.37 0.0 0 0 525.45 155.68
  L 525.45 142.91
  Q 525.45 140.53 523.07 140.53
  L 498.81 140.53
  Q 498.09 140.53 498.09 139.81
  Z
  M 576.69 158.85
  L 576.69 183.90
  A 1.38 1.37 -0.0 0 1 575.31 185.27
  L 561.54 185.27
  A 1.06 1.06 0.0 0 1 560.48 184.21
  L 560.48 113.07
  Q 560.48 111.79 561.76 111.79
  L 575.32 111.79
  A 1.25 1.24 0.0 0 1 576.57 113.03
  L 576.57 128.34
  A 2.53 2.53 0.0 0 0 579.10 130.87
  L 592.65 130.87
  A 3.86 3.85 -0.2 0 0 596.51 126.99
  Q 596.40 110.54 596.48 106.46
  C 596.58 101.20 594.90 97.31 590.46 95.03
  Q 587.65 93.58 581.32 93.59
  Q 554.12 93.63 553.27 93.64
  Q 545.36 93.74 541.70 100.01
  Q 540.57 101.97 540.58 106.13
  Q 540.71 175.25 540.67 190.21
  Q 540.66 195.07 541.84 197.11
  Q 543.78 200.46 547.24 202.23
  Q 549.60 203.45 557.01 203.46
  Q 567.08 203.48 584.24 203.47
  Q 592.24 203.47 595.53 197.46
  Q 597.03 194.72 597.05 188.74
  Q 597.18 159.70 597.15 148.15
  C 597.15 144.65 596.71 141.54 592.72 141.34
  Q 582.08 140.78 571.82 141.33
  Q 569.51 141.45 569.51 143.76
  L 569.51 156.47
  A 1.80 1.80 0.0 0 0 571.31 158.27
  L 576.14 158.27
  Q 576.69 158.27 576.69 158.85
  Z
  M 629.26 184.88
  L 629.26 96.05
  A 2.45 2.44 -90.0 0 0 626.82 93.60
  L 611.54 93.60
  Q 609.66 93.60 609.66 95.49
  L 609.66 200.76
  A 2.66 2.65 90.0 0 0 612.31 203.42
  L 650.07 203.42
  A 2.30 2.30 0.0 0 0 652.37 201.12
  L 652.37 187.68
  A 2.14 2.14 0.0 0 0 650.23 185.54
  L 629.92 185.54
  Q 629.26 185.54 629.26 184.88
  Z
  M 752.70 183.92
  Q 751.91 183.11 751.72 181.40
  Q 747.36 140.63 741.84 95.58
  A 2.26 2.25 -3.4 0 0 739.60 93.60
  L 722.89 93.60
  A 1.79 1.78 -4.0 0 0 721.12 95.63
  L 735.97 200.58
  A 3.24 3.24 0.0 0 0 739.18 203.37
  L 765.70 203.37
  A 3.34 3.34 0.0 0 0 769.00 200.52
  L 784.49 96.10
  A 2.15 2.15 0.0 0 0 782.36 93.63
  L 765.67 93.63
  A 1.81 1.81 0.0 0 0 763.87 95.24
  L 753.73 183.56
  A 0.61 0.60 -64.1 0 1 752.70 183.92
  Z
  M 813.43 95.64
  A 2.05 2.05 0.0 0 0 811.38 93.59
  L 795.62 93.59
  A 2.05 2.05 0.0 0 0 793.57 95.64
  L 793.57 201.32
  A 2.05 2.05 0.0 0 0 795.62 203.37
  L 811.38 203.37
  A 2.05 2.05 0.0 0 0 813.43 201.32
  L 813.43 95.64
  Z
  M 860.84 185.36
  L 848.65 185.36
  Q 846.89 185.36 846.89 183.60
  L 846.89 95.61
  A 2.03 2.03 0.0 0 0 844.86 93.58
  L 829.13 93.58
  Q 826.75 93.58 826.75 95.96
  Q 826.92 143.73 826.95 190.25
  Q 826.96 198.83 833.32 201.92
  Q 836.43 203.43 844.42 203.44
  Q 866.40 203.46 868.50 203.50
  C 873.57 203.61 878.74 201.72 880.99 197.07
  Q 881.90 195.18 881.93 189.75
  Q 882.22 130.12 882.11 95.88
  A 2.23 2.23 0.0 0 0 879.88 93.66
  L 863.58 93.66
  A 1.76 1.76 0.0 0 0 861.82 95.42
  L 861.82 184.39
  A 0.98 0.97 -0.0 0 1 860.84 185.36
  Z
  M 914.91 139.30
  L 914.91 112.85
  A 1.10 1.10 0.0 0 1 916.01 111.75
  L 927.43 111.75
  A 0.96 0.96 0.0 0 1 928.39 112.71
  L 928.39 128.47
  A 2.92 2.92 0.0 0 0 931.31 131.39
  L 945.83 131.39
  A 2.81 2.81 0.0 0 0 948.64 128.56
  Q 948.56 116.20 948.58 108.35
  C 948.59 102.29 947.98 98.66 942.96 95.51
  Q 939.88 93.57 934.51 93.56
  Q 927.48 93.53 909.26 93.62
  Q 904.18 93.65 901.87 94.63
  C 898.14 96.20 894.60 99.96 894.62 104.32
  Q 894.72 128.52 894.59 144.67
  C 894.55 150.27 895.94 153.49 900.45 156.32
  Q 902.73 157.75 908.71 157.80
  Q 912.47 157.83 926.94 157.66
  Q 928.81 157.64 928.81 159.51
  L 928.81 183.38
  A 1.91 1.90 90.0 0 1 926.91 185.29
  L 916.57 185.29
  A 1.19 1.18 -90.0 0 1 915.39 184.10
  L 915.39 170.98
  A 3.39 3.39 0.0 0 0 912.00 167.59
  L 897.23 167.59
  Q 894.62 167.59 894.68 170.20
  Q 894.91 180.29 894.72 189.21
  Q 894.63 193.41 895.50 195.83
  C 897.35 200.94 902.52 203.43 908.02 203.45
  Q 916.02 203.48 935.74 203.46
  Q 941.87 203.46 945.81 199.33
  Q 948.69 196.31 948.68 193.23
  Q 948.65 174.52 948.74 155.12
  C 948.76 149.33 948.27 144.87 943.24 142.10
  Q 940.49 140.59 933.53 140.56
  Q 929.69 140.54 916.16 140.55
  A 1.25 1.25 0.0 0 1 914.91 139.30
  Z
  M 690.62 181.90
  Q 694.98 181.91 699.24 181.97
  A 0.68 0.68 0.0 0 1 699.91 182.57
  L 702.13 201.36
  A 2.43 2.43 0.0 0 0 704.54 203.51
  L 720.64 203.51
  A 1.88 1.88 0.0 0 0 722.50 201.37
  L 707.60 96.08
  A 2.75 2.74 86.1 0 0 704.91 93.72
  Q 698.96 93.68 690.75 93.67
  Q 682.54 93.65 676.59 93.68
  A 2.75 2.74 -86.0 0 0 673.89 96.03
  L 658.68 201.28
  A 1.88 1.88 0.0 0 0 660.54 203.42
  L 676.64 203.47
  A 2.43 2.43 0.0 0 0 679.05 201.33
  L 681.33 182.54
  A 0.68 0.68 0.0 0 1 682.00 181.95
  Q 686.26 181.90 690.62 181.90
  Z"
/>
<path d="
  M 200.55 55.94
  Q 206.12 72.47 210.22 91.03
  Q 210.30 91.40 209.95 91.27
  L 193.02 85.25
  Q 192.19 84.96 192.41 84.10
  L 199.57 55.97
  Q 199.99 54.30 200.55 55.94
  Z"
/>
<path d="
  M 149.08 101.82
  L 139.95 114.20
  A 1.24 1.24 0.0 0 1 138.62 114.65
  L 123.87 110.52
  Q 123.39 110.39 123.64 109.96
  L 125.89 106.10
  Q 126.08 105.78 126.57 105.63
  Q 138.55 102.14 148.41 100.70
  Q 150.08 100.45 149.08 101.82
  Z"
/>
<rect x="-7.46" y="-16.13" transform="translate(371.96,127.94) rotate(-0.1)" width="14.92" height="32.26" rx="0.73"/>
<path d="
  M 690.39 111.68
  Q 690.65 111.68 690.87 111.80
  Q 691.34 112.08 691.41 112.63
  L 697.61 165.04
  A 0.36 0.35 -5.0 0 1 697.27 165.44
  Q 693.86 165.59 690.37 165.59
  Q 686.88 165.58 683.46 165.43
  A 0.36 0.35 5.0 0 1 683.12 165.03
  L 689.37 112.63
  Q 689.44 112.08 689.91 111.80
  Q 690.12 111.68 690.39 111.68
  Z"
/>
</g>
<g fill="#000000">
<path d="
  M 280.93 150.61
  Q 282.48 176.52 270.62 199.73
  C 258.91 222.62 238.08 240.16 214.27 250.33
  Q 213.16 250.81 213.96 249.91
  C 233.90 227.68 240.36 197.86 235.10 168.81
  C 233.08 157.67 228.89 147.65 222.40 138.54
  Q 221.56 137.36 222.01 138.73
  C 227.59 155.90 229.21 172.41 225.29 189.99
  C 215.25 234.95 176.58 265.40 132.47 274.56
  Q 131.62 274.74 132.12 274.03
  C 139.92 262.94 147.19 250.60 151.95 237.69
  C 156.20 226.19 158.01 208.06 149.84 198.16
  C 143.18 190.09 132.68 188.72 123.18 192.14
  Q 115.09 195.05 112.27 196.12
  Q 111.46 196.42 111.71 197.24
  L 116.06 211.56
  Q 116.20 212.02 115.74 211.89
  C 100.86 207.72 81.41 195.19 86.15 176.76
  A 0.48 0.47 -71.3 0 1 86.79 176.44
  L 101.83 182.62
  Q 102.26 182.79 102.39 182.34
  L 107.11 165.47
  Q 107.29 164.84 107.91 165.06
  L 125.67 171.37
  Q 126.15 171.54 126.32 171.06
  L 131.45 156.62
  A 0.18 0.18 0.0 0 1 131.68 156.51
  L 150.11 163.06
  A 0.61 0.61 0.0 0 0 150.87 162.74
  L 157.94 147.37
  A 0.44 0.44 0.0 0 0 157.58 146.74
  Q 147.09 145.81 136.76 145.80
  Q 134.60 145.80 131.68 147.00
  Q 119.80 151.88 68.45 172.60
  A 0.45 0.45 0.0 0 1 68.01 172.53
  L 40.69 149.01
  A 0.26 0.25 -39.7 0 1 40.73 148.60
  Q 66.67 133.53 93.31 120.81
  C 96.11 119.47 100.04 118.32 102.16 117.57
  Q 102.68 117.39 102.85 116.97
  Q 104.51 112.95 106.10 109.16
  C 108.40 103.67 107.15 96.86 109.04 91.65
  Q 112.06 83.32 118.30 79.55
  Q 125.27 75.35 143.71 67.14
  Q 144.15 66.95 144.13 66.47
  L 142.96 22.00
  A 0.61 0.61 0.0 0 1 143.76 21.41
  Q 159.68 26.53 173.29 36.34
  Q 173.89 36.77 173.67 37.48
  L 166.56 60.48
  A 0.41 0.41 0.0 0 0 167.01 61.01
  L 178.65 59.36
  Q 178.97 59.32 179.05 59.01
  L 190.47 18.24
  Q 190.68 17.49 191.40 17.79
  C 209.13 25.38 225.71 41.42 229.04 61.07
  A 0.64 0.63 4.5 0 0 229.48 61.58
  C 251.47 68.59 271.76 84.28 284.19 103.28
  C 296.92 122.74 301.33 146.14 298.21 169.25
  Q 297.17 176.99 294.23 184.64
  Q 293.84 185.66 293.67 184.58
  C 291.75 172.34 287.89 161.23 281.19 150.53
  Q 280.90 150.06 280.93 150.61
  Z
  M 200.55 55.94
  Q 199.99 54.30 199.57 55.97
  L 192.41 84.10
  Q 192.19 84.96 193.02 85.25
  L 209.95 91.27
  Q 210.30 91.40 210.22 91.03
  Q 206.12 72.47 200.55 55.94
  Z
  M 149.08 101.82
  Q 150.08 100.45 148.41 100.70
  Q 138.55 102.14 126.57 105.63
  Q 126.08 105.78 125.89 106.10
  L 123.64 109.96
  Q 123.39 110.39 123.87 110.52
  L 138.62 114.65
  A 1.24 1.24 0.0 0 0 139.95 114.20
  L 149.08 101.82
  Z"
/>
<path d="
  M 365.06 162.19
  A 0.51 0.51 0.0 0 0 364.54 162.70
  L 364.54 200.90
  Q 364.54 203.38 362.07 203.38
  L 346.78 203.38
  A 2.10 2.09 90.0 0 1 344.69 201.28
  L 344.69 95.71
  A 2.13 2.12 90.0 0 1 346.81 93.58
  Q 373.07 93.60 386.26 93.51
  C 391.91 93.47 397.30 95.78 399.30 100.99
  Q 399.86 102.44 399.84 107.13
  Q 399.77 128.15 399.89 150.51
  Q 399.93 157.26 394.86 160.44
  Q 392.13 162.16 386.37 162.22
  Q 371.73 162.37 365.06 162.19
  Z
  M 379.3931 112.5270
  A 0.73 0.73 0.0 0 0 378.6618 111.7983
  L 365.2019 111.8218
  A 0.73 0.73 0.0 0 0 364.4731 112.5530
  L 364.5269 143.3530
  A 0.73 0.73 0.0 0 0 365.2582 144.0817
  L 378.7181 144.0582
  A 0.73 0.73 0.0 0 0 379.4469 143.3270
  L 379.3931 112.5270
  Z"
/>
<path d="
  M 431.76 139.45
  Q 431.76 140.57 432.88 140.59
  Q 443.37 140.77 454.47 140.60
  C 460.58 140.51 465.79 144.99 465.77 151.28
  Q 465.67 191.67 465.66 192.53
  C 465.59 200.63 459.33 203.44 452.25 203.45
  Q 437.08 203.48 422.37 203.41
  Q 419.82 203.40 416.50 201.26
  Q 411.08 197.78 411.17 191.26
  Q 411.30 182.13 411.31 169.46
  A 1.59 1.58 90.0 0 1 412.89 167.87
  L 428.47 167.87
  Q 431.81 167.87 431.81 171.21
  L 431.81 184.10
  A 1.18 1.18 0.0 0 0 432.99 185.28
  L 444.16 185.28
  A 1.27 1.27 0.0 0 0 445.43 184.01
  L 445.43 159.24
  A 1.39 1.39 0.0 0 0 444.04 157.85
  Q 433.67 157.91 426.56 157.94
  C 419.83 157.98 416.13 157.19 412.89 151.91
  Q 411.62 149.82 411.64 145.49
  Q 411.78 123.30 411.58 106.48
  Q 411.53 102.17 412.71 100.12
  Q 415.04 96.05 419.30 94.37
  Q 421.34 93.56 427.43 93.58
  Q 440.45 93.61 453.48 93.60
  C 458.22 93.60 463.39 96.15 465.04 100.77
  Q 465.66 102.50 465.63 107.04
  Q 465.51 122.67 465.58 127.50
  C 465.63 131.10 463.75 131.37 460.50 131.48
  Q 455.18 131.65 450.77 131.56
  C 447.50 131.49 445.28 131.63 445.37 127.69
  Q 445.53 120.61 445.34 112.97
  Q 445.32 111.89 444.23 111.89
  L 432.83 111.89
  A 1.07 1.06 -0.0 0 0 431.76 112.95
  L 431.76 139.45
  Z"
/>
<path d="
  M 498.09 139.81
  Q 498.09 140.53 498.81 140.53
  L 523.07 140.53
  Q 525.45 140.53 525.45 142.91
  L 525.45 155.68
  A 2.37 2.37 0.0 0 1 523.08 158.05
  L 498.45 158.05
  Q 497.94 158.05 497.94 158.56
  L 497.94 184.48
  Q 497.94 185.51 498.98 185.51
  L 526.56 185.51
  A 2.41 2.41 0.0 0 1 528.97 187.92
  L 528.97 200.84
  A 2.57 2.57 0.0 0 1 526.40 203.41
  L 480.52 203.41
  A 2.39 2.38 -0.0 0 1 478.13 201.03
  L 478.13 95.51
  A 1.88 1.88 0.0 0 1 480.01 93.63
  L 526.45 93.63
  Q 528.82 93.63 528.82 96.01
  L 528.82 108.96
  Q 528.82 111.75 526.03 111.75
  L 499.15 111.75
  Q 498.09 111.75 498.09 112.81
  L 498.09 139.81
  Z"
/>
<path d="
  M 576.14 158.27
  L 571.31 158.27
  A 1.80 1.80 0.0 0 1 569.51 156.47
  L 569.51 143.76
  Q 569.51 141.45 571.82 141.33
  Q 582.08 140.78 592.72 141.34
  C 596.71 141.54 597.15 144.65 597.15 148.15
  Q 597.18 159.70 597.05 188.74
  Q 597.03 194.72 595.53 197.46
  Q 592.24 203.47 584.24 203.47
  Q 567.08 203.48 557.01 203.46
  Q 549.60 203.45 547.24 202.23
  Q 543.78 200.46 541.84 197.11
  Q 540.66 195.07 540.67 190.21
  Q 540.71 175.25 540.58 106.13
  Q 540.57 101.97 541.70 100.01
  Q 545.36 93.74 553.27 93.64
  Q 554.12 93.63 581.32 93.59
  Q 587.65 93.58 590.46 95.03
  C 594.90 97.31 596.58 101.20 596.48 106.46
  Q 596.40 110.54 596.51 126.99
  A 3.86 3.85 -0.2 0 1 592.65 130.87
  L 579.10 130.87
  A 2.53 2.53 0.0 0 1 576.57 128.34
  L 576.57 113.03
  A 1.25 1.24 0.0 0 0 575.32 111.79
  L 561.76 111.79
  Q 560.48 111.79 560.48 113.07
  L 560.48 184.21
  A 1.06 1.06 0.0 0 0 561.54 185.27
  L 575.31 185.27
  A 1.38 1.37 0.0 0 0 576.69 183.90
  L 576.69 158.85
  Q 576.69 158.27 576.14 158.27
  Z"
/>
<path d="
  M 629.92 185.54
  L 650.23 185.54
  A 2.14 2.14 0.0 0 1 652.37 187.68
  L 652.37 201.12
  A 2.30 2.30 0.0 0 1 650.07 203.42
  L 612.31 203.42
  A 2.66 2.65 -90.0 0 1 609.66 200.76
  L 609.66 95.49
  Q 609.66 93.60 611.54 93.60
  L 626.82 93.60
  A 2.45 2.44 90.0 0 1 629.26 96.05
  L 629.26 184.88
  Q 629.26 185.54 629.92 185.54
  Z"
/>
<path d="
  M 752.70 183.92
  A 0.61 0.60 -64.1 0 0 753.73 183.56
  L 763.87 95.24
  A 1.81 1.81 0.0 0 1 765.67 93.63
  L 782.36 93.63
  A 2.15 2.15 0.0 0 1 784.49 96.10
  L 769.00 200.52
  A 3.34 3.34 0.0 0 1 765.70 203.37
  L 739.18 203.37
  A 3.24 3.24 0.0 0 1 735.97 200.58
  L 721.12 95.63
  A 1.79 1.78 -4.0 0 1 722.89 93.60
  L 739.60 93.60
  A 2.26 2.25 -3.4 0 1 741.84 95.58
  Q 747.36 140.63 751.72 181.40
  Q 751.91 183.11 752.70 183.92
  Z"
/>
<rect x="793.57" y="93.59" width="19.86" height="109.78" rx="2.05"/>
<path d="
  M 860.84 185.36
  A 0.98 0.97 0.0 0 0 861.82 184.39
  L 861.82 95.42
  A 1.76 1.76 0.0 0 1 863.58 93.66
  L 879.88 93.66
  A 2.23 2.23 0.0 0 1 882.11 95.88
  Q 882.22 130.12 881.93 189.75
  Q 881.90 195.18 880.99 197.07
  C 878.74 201.72 873.57 203.61 868.50 203.50
  Q 866.40 203.46 844.42 203.44
  Q 836.43 203.43 833.32 201.92
  Q 826.96 198.83 826.95 190.25
  Q 826.92 143.73 826.75 95.96
  Q 826.75 93.58 829.13 93.58
  L 844.86 93.58
  A 2.03 2.03 0.0 0 1 846.89 95.61
  L 846.89 183.60
  Q 846.89 185.36 848.65 185.36
  L 860.84 185.36
  Z"
/>
<path d="
  M 914.91 139.30
  A 1.25 1.25 0.0 0 0 916.16 140.55
  Q 929.69 140.54 933.53 140.56
  Q 940.49 140.59 943.24 142.10
  C 948.27 144.87 948.76 149.33 948.74 155.12
  Q 948.65 174.52 948.68 193.23
  Q 948.69 196.31 945.81 199.33
  Q 941.87 203.46 935.74 203.46
  Q 916.02 203.48 908.02 203.45
  C 902.52 203.43 897.35 200.94 895.50 195.83
  Q 894.63 193.41 894.72 189.21
  Q 894.91 180.29 894.68 170.20
  Q 894.62 167.59 897.23 167.59
  L 912.00 167.59
  A 3.39 3.39 0.0 0 1 915.39 170.98
  L 915.39 184.10
  A 1.19 1.18 90.0 0 0 916.57 185.29
  L 926.91 185.29
  A 1.91 1.90 90.0 0 0 928.81 183.38
  L 928.81 159.51
  Q 928.81 157.64 926.94 157.66
  Q 912.47 157.83 908.71 157.80
  Q 902.73 157.75 900.45 156.32
  C 895.94 153.49 894.55 150.27 894.59 144.67
  Q 894.72 128.52 894.62 104.32
  C 894.60 99.96 898.14 96.20 901.87 94.63
  Q 904.18 93.65 909.26 93.62
  Q 927.48 93.53 934.51 93.56
  Q 939.88 93.57 942.96 95.51
  C 947.98 98.66 948.59 102.29 948.58 108.35
  Q 948.56 116.20 948.64 128.56
  A 2.81 2.81 0.0 0 1 945.83 131.39
  L 931.31 131.39
  A 2.92 2.92 0.0 0 1 928.39 128.47
  L 928.39 112.71
  A 0.96 0.96 0.0 0 0 927.43 111.75
  L 916.01 111.75
  A 1.10 1.10 0.0 0 0 914.91 112.85
  L 914.91 139.30
  Z"
/>
<path d="
  M 690.75 93.67
  Q 698.96 93.68 704.91 93.72
  A 2.75 2.74 86.1 0 1 707.60 96.08
  L 722.50 201.37
  A 1.88 1.88 0.0 0 1 720.64 203.51
  L 704.54 203.51
  A 2.43 2.43 0.0 0 1 702.13 201.36
  L 699.91 182.57
  A 0.68 0.68 0.0 0 0 699.24 181.97
  Q 694.98 181.91 690.62 181.90
  Q 686.26 181.90 682.00 181.95
  A 0.68 0.68 0.0 0 0 681.33 182.54
  L 679.05 201.33
  A 2.43 2.43 0.0 0 1 676.64 203.47
  L 660.54 203.42
  A 1.88 1.88 0.0 0 1 658.68 201.28
  L 673.89 96.03
  A 2.75 2.74 -86.0 0 1 676.59 93.68
  Q 682.54 93.65 690.75 93.67
  Z
  M 690.37 165.59
  Q 693.86 165.59 697.27 165.44
  A 0.36 0.35 -5.0 0 0 697.61 165.04
  L 691.41 112.63
  Q 691.34 112.08 690.87 111.80
  Q 690.65 111.68 690.39 111.68
  Q 690.12 111.68 689.91 111.80
  Q 689.44 112.08 689.37 112.63
  L 683.12 165.03
  A 0.36 0.35 5.0 0 0 683.46 165.43
  Q 686.88 165.58 690.37 165.59
  Z"
/>
</g>
</svg>
